<svg width="100" height="100" viewBox="0 0 100 100" fill="none" xmlns="http://www.w3.org/2000/svg">
<g filter="url(#filter0_bd_1331_8236)">
<rect x="10" y="8" width="80" height="80" rx="40" fill="url(#paint0_linear_1331_8236)" shape-rendering="crispEdges"/>
<rect x="10.5" y="8.5" width="79" height="79" rx="39.5" stroke="url(#paint1_linear_1331_8236)" shape-rendering="crispEdges"/>
<g opacity="0.2">
<path d="M31.4392 30.7079C31.4392 32.1868 32.068 33.6091 33.1938 34.6612C34.3216 35.7125 35.8539 36.3057 37.4547 36.3057C39.0556 36.3057 40.5878 35.7125 41.7157 34.6612L31.4392 30.7079ZM31.4392 30.7079C31.4392 29.2289 32.068 27.8066 33.1938 26.7546L31.4392 30.7079ZM54.2544 22.9583L41.7158 34.6611L33.1939 26.7545L45.7326 15.0517C46.8728 14.0615 48.3833 13.5202 49.9468 13.5459C51.5119 13.5717 53.002 14.1635 54.104 15.1921C55.2055 16.2202 55.8331 17.6035 55.8604 19.0495C55.8877 20.494 55.314 21.8954 54.2544 22.9583Z" fill="#3655A1" stroke="#3655A1" stroke-width="0.5"/>
<path d="M62.547 36.3057C64.1479 36.3057 65.6801 35.7125 66.8079 34.6612C67.9337 33.6092 68.5625 32.1869 68.5625 30.7079C68.5625 29.2289 67.9337 27.8065 66.8078 26.7545L54.2692 15.0517C53.1289 14.0615 51.6184 13.5202 50.0549 13.5459C48.4899 13.5717 46.9998 14.1635 45.8977 15.1921C44.7962 16.2202 44.1687 17.6035 44.1413 19.0495C44.114 20.494 44.6877 21.8954 45.7473 22.9583L58.286 34.6611L62.547 36.3057ZM62.547 36.3057C60.9461 36.3057 59.4139 35.7125 58.2861 34.6612L62.547 36.3057Z" fill="#3655A1" stroke="#3655A1" stroke-width="0.5"/>
<path d="M49.7891 23.2968C51.2208 23.2968 52.5841 23.7239 53.5806 24.4713C54.5758 25.2177 55.1133 26.212 55.1133 27.2275L55.1133 49.5244C55.1133 50.5399 54.5758 51.5342 53.5806 52.2806C52.5841 53.028 51.2208 53.4551 49.7891 53.4551C48.3573 53.4551 46.994 53.028 45.9975 52.2806C45.0024 51.5342 44.4648 50.5399 44.4648 49.5244L44.4648 27.2275C44.4648 26.212 45.0024 25.2177 45.9975 24.4713C46.994 23.7239 48.3573 23.2968 49.7891 23.2968Z" fill="#3655A1" stroke="#3655A1" stroke-width="0.5"/>
</g>
<path d="M36.8469 37.4149L36.8464 37.4145C36.6758 37.2556 36.5414 37.0678 36.45 36.8624C36.3587 36.657 36.3119 36.4374 36.3119 36.2162C36.3119 35.9949 36.3587 35.7754 36.45 35.57C36.5414 35.3645 36.6758 35.1767 36.8464 35.0179L36.8466 35.0177L49.3887 23.3118C49.7332 22.9902 50.2039 22.8069 50.698 22.8069C51.1922 22.8069 51.6629 22.9902 52.0074 23.3118C52.3513 23.6328 52.541 24.0643 52.541 24.5103C52.541 24.9563 52.3513 25.3878 52.0074 25.7088L39.4654 37.4147L39.4652 37.4149C39.2949 37.5742 39.0918 37.7015 38.8669 37.7885C38.642 37.8756 38.4004 37.9207 38.156 37.9207C37.9116 37.9207 37.67 37.8756 37.4452 37.7885C37.2203 37.7015 37.0171 37.5742 36.8469 37.4149Z" fill="#3655A1" stroke="#3655A1" stroke-width="0.5"/>
<path d="M64.5554 37.4145L64.5554 37.4145L64.5549 37.4149C64.3847 37.5742 64.1815 37.7015 63.9566 37.7885C63.7318 37.8756 63.4901 37.9207 63.2458 37.9207C63.0014 37.9207 62.7598 37.8756 62.5349 37.7885C62.31 37.7015 62.1069 37.5742 61.9366 37.4149L61.9364 37.4147L49.3944 25.7088C49.224 25.5498 49.0898 25.3619 48.9986 25.1564C48.9074 24.951 48.8608 24.7315 48.8608 24.5103C48.8608 24.2891 48.9074 24.0696 48.9986 23.8642C49.0898 23.6587 49.224 23.4708 49.3944 23.3118C49.5648 23.1527 49.7681 23.0257 49.993 22.9387C50.2179 22.8518 50.4594 22.8069 50.7038 22.8069C50.9481 22.8069 51.1897 22.8518 51.4146 22.9387C51.6394 23.0257 51.8427 23.1527 52.0131 23.3118L64.5551 35.0177L64.5554 35.0179C64.726 35.1767 64.8604 35.3645 64.9518 35.57C65.0431 35.7754 65.0898 35.9949 65.0898 36.2162C65.0898 36.4374 65.0431 36.657 64.9518 36.8624C64.8604 37.0678 64.726 37.2556 64.5554 37.4145Z" fill="#3655A1" stroke="#3655A1" stroke-width="0.5"/>
<path d="M50.7007 22.9509C51.2169 22.9509 51.7 23.0818 52.0448 23.3007C52.3904 23.5201 52.541 23.7884 52.541 24.0281L52.541 49.2448C52.541 49.4845 52.3904 49.7528 52.0448 49.9722C51.7 50.1911 51.2169 50.322 50.7007 50.322C50.1844 50.322 49.7013 50.1911 49.3566 49.9722C49.0109 49.7528 48.8603 49.4845 48.8603 49.2448L48.8603 24.0281C48.8603 23.7884 49.0109 23.5201 49.3566 23.3007C49.7013 23.0818 50.1844 22.9509 50.7007 22.9509Z" fill="#3655A1" stroke="#3655A1" stroke-width="0.5"/>
<path d="M32.6 76.7051V64.7851H28.58V61.8051H40.22V64.7851H36.18V76.7051H32.6ZM48.9889 76.9851C44.9289 76.9851 42.1689 74.0651 42.1689 69.1851C42.1689 64.3051 44.9289 61.5451 48.9889 61.5451C53.0489 61.5451 55.8089 64.3251 55.8089 69.1851C55.8089 74.0651 53.0489 76.9851 48.9889 76.9851ZM48.9889 73.9051C50.9489 73.9051 52.1689 72.0651 52.1689 69.1851C52.1689 66.3051 50.9489 64.6051 48.9889 64.6051C47.0289 64.6051 45.8289 66.3051 45.8289 69.1851C45.8289 72.0651 47.0289 73.9051 48.9889 73.9051ZM59.5716 76.7051V61.8051H64.8116C68.0716 61.8051 70.7716 62.9851 70.7716 66.6651C70.7716 70.2051 68.0516 71.7651 64.8916 71.7651H63.1516V76.7051H59.5716ZM63.1516 68.9451H64.7116C66.4516 68.9451 67.2916 68.1251 67.2916 66.6651C67.2916 65.1651 66.3316 64.6451 64.6116 64.6451H63.1516V68.9451Z" fill="#3655A1"/>
</g>
<defs>
<filter id="filter0_bd_1331_8236" x="-10" y="-12" width="120" height="120" filterUnits="userSpaceOnUse" color-interpolation-filters="sRGB">
<feFlood flood-opacity="0" result="BackgroundImageFix"/>
<feGaussianBlur in="BackgroundImageFix" stdDeviation="10"/>
<feComposite in2="SourceAlpha" operator="in" result="effect1_backgroundBlur_1331_8236"/>
<feColorMatrix in="SourceAlpha" type="matrix" values="0 0 0 0 0 0 0 0 0 0 0 0 0 0 0 0 0 0 127 0" result="hardAlpha"/>
<feOffset dy="2"/>
<feGaussianBlur stdDeviation="5"/>
<feComposite in2="hardAlpha" operator="out"/>
<feColorMatrix type="matrix" values="0 0 0 0 1 0 0 0 0 1 0 0 0 0 1 0 0 0 0.5 0"/>
<feBlend mode="normal" in2="effect1_backgroundBlur_1331_8236" result="effect2_dropShadow_1331_8236"/>
<feBlend mode="normal" in="SourceGraphic" in2="effect2_dropShadow_1331_8236" result="shape"/>
</filter>
<linearGradient id="paint0_linear_1331_8236" x1="10" y1="8" x2="100.996" y2="65.8959" gradientUnits="userSpaceOnUse">
<stop stop-color="#F6BDEE"/>
<stop offset="0.135" stop-color="#FEEEFF"/>
<stop offset="0.34" stop-color="#E4C4F5"/>
<stop offset="0.555" stop-color="#BED3FF"/>
<stop offset="0.786136" stop-color="#CCCEFF"/>
<stop offset="0.857963" stop-color="#F2FCFF"/>
<stop offset="0.917567" stop-color="#E5EDFF"/>
<stop offset="0.99" stop-color="#BED3FF"/>
<stop offset="1" stop-color="#BED3FF"/>
</linearGradient>
<linearGradient id="paint1_linear_1331_8236" x1="10" y1="8" x2="100.996" y2="65.8959" gradientUnits="userSpaceOnUse">
<stop stop-color="#F6BDEE"/>
<stop offset="0.135" stop-color="#FEEEFF"/>
<stop offset="0.34" stop-color="#E4C4F5"/>
<stop offset="0.555" stop-color="#BED3FF"/>
<stop offset="0.786136" stop-color="#CCCEFF"/>
<stop offset="0.857963" stop-color="#F2FCFF"/>
<stop offset="0.917567" stop-color="#E5EDFF"/>
<stop offset="0.99" stop-color="#BED3FF"/>
<stop offset="1" stop-color="#BED3FF"/>
</linearGradient>
</defs>
</svg>
