<?xml version="1.0" encoding="UTF-8"?>
<svg id="_レイヤー_1" data-name="レイヤー 1" xmlns="http://www.w3.org/2000/svg" xmlns:xlink="http://www.w3.org/1999/xlink" viewBox="0 0 170 45.35">
  <defs>
    <style>
      .cls-1 {
        fill: #fbcd6b;
      }

      .cls-1, .cls-2, .cls-3, .cls-4, .cls-5, .cls-6, .cls-7, .cls-8, .cls-9, .cls-10, .cls-11, .cls-12, .cls-13, .cls-14, .cls-15, .cls-16, .cls-17, .cls-18, .cls-19, .cls-20, .cls-21, .cls-22, .cls-23, .cls-24, .cls-25, .cls-26, .cls-27, .cls-28, .cls-29, .cls-30, .cls-31, .cls-32, .cls-33, .cls-34, .cls-35, .cls-36, .cls-37, .cls-38, .cls-39, .cls-40 {
        stroke-width: 0px;
      }

      .cls-2 {
        fill: #fbd16a;
      }

      .cls-3 {
        fill: #f6b876;
      }

      .cls-4 {
        fill: #f8c172;
      }

      .cls-5 {
        fill: #f7bc75;
      }

      .cls-41 {
        clip-path: url(#clippath);
      }

      .cls-6 {
        fill: #f9c570;
      }

      .cls-7 {
        fill: none;
      }

      .cls-8 {
        fill: #facb6c;
      }

      .cls-9 {
        fill: #3655a1;
      }

      .cls-10 {
        fill: #f9c66f;
      }

      .cls-11 {
        fill: #facb6d;
      }

      .cls-12 {
        fill: #fcd467;
      }

      .cls-13 {
        fill: #fbcf6b;
      }

      .cls-14 {
        fill: #f8c471;
      }

      .cls-15 {
        fill: #f6b975;
      }

      .cls-16 {
        fill: #f8bf73;
      }

      .cls-17 {
        fill: #f9c86f;
      }

      .cls-18 {
        fill: #fac96e;
      }

      .cls-19 {
        fill: #facc6d;
      }

      .cls-20 {
        fill: #f9c670;
      }

      .cls-21 {
        fill: #f8c073;
      }

      .cls-22 {
        fill: #f6b677;
      }

      .cls-23 {
        fill: #facd6c;
      }

      .cls-24 {
        fill: #fcd368;
      }

      .cls-25 {
        fill: #f9c76f;
      }

      .cls-26 {
        fill: #f7bc74;
      }

      .cls-27 {
        fill: #f7ba75;
      }

      .cls-28 {
        fill: #fbd169;
      }

      .cls-29 {
        fill: #f8c371;
      }

      .cls-30 {
        fill: #f6b776;
      }

      .cls-31 {
        fill: #fcd567;
      }

      .cls-32 {
        fill: #fbd268;
      }

      .cls-33 {
        fill: #f7bb75;
      }

      .cls-34 {
        fill: #f7bd74;
      }

      .cls-35 {
        fill: #f9c471;
      }

      .cls-36 {
        fill: #fbd06a;
      }

      .cls-37 {
        fill: #faca6e;
      }

      .cls-38 {
        fill: #f7be74;
      }

      .cls-39 {
        fill: #f8c272;
      }

      .cls-40 {
        fill: #fcd369;
      }
    </style>
    <clipPath id="clippath">
      <path class="cls-7" d="M78.27,40.68c-4.44-8.41-3.4-8-12.22-4.52,8.41-4.44,8-3.4,4.52-12.22,4.44,8.41,3.4,8,12.22,4.52-8.41,4.44-8,3.4-4.52,12.22Z"/>
    </clipPath>
  </defs>
  <path class="cls-9" d="M126.85,45.34c-3.01.19-4.76-2.81-4.79-5.23h.64c-.14.38.94,4.33,3.38,4.18,1.09.09,1.97-1,1.96-1.48.06-.19-.01-9.89.01-10.08,0-.43-.37-.81-.8-.8-6.1.47-13.56,4.32-12.88,10.78h-6.26c2.34-7.26,11.41-10.81,19.2-11.33.42-.03.74-.38.74-.8-.08-.69.37-2.48-.8-2.47,0,0-15.96,0-15.96,0v-.67h36.72v.67h-15.96c-.44,0-.8.36-.8.8.09.68-.36,2.42.74,2.46,7.79.51,16.86,4.07,19.2,11.33h-6.87c.62-5.45-4.83-9.79-12.27-10.72-.43,0-.81.37-.8.8,0,0,0,9.36,0,9.36-.19,1.77-1.6,3.02-4.4,3.17Z"/>
  <g class="cls-41">
    <rect class="cls-22" x="66.04" y="23.93" width="16.74" height="16.74"/>
    <path class="cls-22" d="M82.79,32.3c-.19,11.01-16.56,11-16.74,0,.19-11.01,16.56-11,16.74,0Z"/>
    <path class="cls-30" d="M82.6,32.3c-.18,10.76-16.19,10.76-16.37,0,.18-10.76,16.19-10.76,16.37,0Z"/>
    <path class="cls-30" d="M82.41,32.3c-.18,10.51-15.81,10.51-15.99,0,.18-10.51,15.81-10.51,15.99,0Z"/>
    <path class="cls-3" d="M82.22,32.3c-.18,10.26-15.44,10.26-15.61,0,.18-10.26,15.44-10.26,15.61,0Z"/>
    <path class="cls-15" d="M82.03,32.3c-.17,10.01-15.07,10.01-15.24,0,.17-10.01,15.07-10.01,15.24,0Z"/>
    <path class="cls-27" d="M81.85,32.3c-.17,9.77-14.69,9.76-14.86,0,.17-9.77,14.69-9.76,14.86,0Z"/>
    <path class="cls-33" d="M81.66,32.3c-.16,9.52-14.32,9.52-14.48,0,.16-9.52,14.32-9.52,14.48,0Z"/>
    <path class="cls-5" d="M81.47,32.3c-.16,9.27-13.95,9.27-14.11,0,.16-9.27,13.95-9.27,14.11,0Z"/>
    <path class="cls-26" d="M81.28,32.3c-.15,9.02-13.58,9.02-13.73,0,.15-9.02,13.58-9.02,13.73,0Z"/>
    <path class="cls-34" d="M81.09,32.3c-.15,8.77-13.2,8.77-13.35,0,.15-8.77,13.2-8.77,13.35,0Z"/>
    <path class="cls-38" d="M80.9,32.3c-.15,8.53-12.83,8.53-12.97,0,.15-8.53,12.83-8.53,12.97,0Z"/>
    <path class="cls-16" d="M80.71,32.3c-.14,8.28-12.46,8.28-12.6,0,.14-8.28,12.46-8.28,12.6,0Z"/>
    <path class="cls-16" d="M80.53,32.3c-.14,8.03-12.08,8.03-12.22,0,.14-8.03,12.08-8.03,12.22,0Z"/>
    <path class="cls-21" d="M80.34,32.3c-.13,7.78-11.71,7.78-11.84,0,.13-7.78,11.71-7.78,11.84,0Z"/>
    <path class="cls-4" d="M80.15,32.3c-.13,7.54-11.34,7.53-11.47,0,.13-7.54,11.34-7.53,11.47,0Z"/>
    <path class="cls-39" d="M79.96,32.3c-.12,7.29-10.96,7.29-11.09,0,.12-7.29,10.96-7.29,11.09,0Z"/>
    <path class="cls-39" d="M79.77,32.3c-.12,7.04-10.59,7.04-10.71,0,.12-7.04,10.59-7.04,10.71,0Z"/>
    <path class="cls-29" d="M79.58,32.3c-.12,6.79-10.22,6.79-10.33,0,.12-6.79,10.22-6.79,10.33,0Z"/>
    <path class="cls-14" d="M79.4,32.3c-.11,6.54-9.85,6.54-9.96,0,.11-6.54,9.85-6.54,9.96,0Z"/>
    <path class="cls-35" d="M79.21,32.3c-.11,6.3-9.47,6.3-9.58,0,.11-6.3,9.47-6.3,9.58,0Z"/>
    <path class="cls-35" d="M79.02,32.3c-.1,6.05-9.1,6.05-9.2,0,.1-6.05,9.1-6.05,9.2,0Z"/>
    <path class="cls-6" d="M78.83,32.3c-.1,5.8-8.72,5.8-8.82,0,.1-5.8,8.72-5.8,8.82,0Z"/>
    <path class="cls-20" d="M78.63,32.3c-.09,5.54-8.34,5.54-8.44,0,.09-5.54,8.34-5.54,8.44,0Z"/>
    <path class="cls-10" d="M78.44,32.3c-.09,5.29-7.96,5.29-8.05,0,.09-5.29,7.96-5.29,8.05,0Z"/>
    <path class="cls-25" d="M78.25,32.3c-.09,5.04-7.58,5.04-7.67,0,.09-5.04,7.58-5.04,7.67,0Z"/>
    <path class="cls-17" d="M78.06,32.3c-.08,4.79-7.2,4.79-7.29,0,.08-4.79,7.2-4.79,7.29,0Z"/>
    <path class="cls-18" d="M77.87,32.3c-.08,4.54-6.83,4.54-6.9,0,.08-4.54,6.83-4.54,6.9,0Z"/>
    <path class="cls-18" d="M77.68,32.3c-.07,4.28-6.45,4.28-6.52,0,.07-4.28,6.45-4.28,6.52,0Z"/>
    <path class="cls-37" d="M77.48,32.3c-.07,4.03-6.07,4.03-6.14,0,.07-4.03,6.07-4.03,6.14,0Z"/>
    <path class="cls-11" d="M77.29,32.3c-.06,3.78-5.69,3.78-5.75,0,.06-3.78,5.69-3.78,5.75,0Z"/>
    <path class="cls-8" d="M77.1,32.3c-.06,3.53-5.31,3.53-5.37,0,.06-3.53,5.31-3.53,5.37,0Z"/>
    <path class="cls-19" d="M76.91,32.3c-.06,3.28-4.93,3.28-4.98,0,.06-3.28,4.93-3.28,4.98,0Z"/>
    <path class="cls-23" d="M76.72,32.3c-.05,3.02-4.55,3.02-4.6,0,.05-3.02,4.55-3.02,4.6,0Z"/>
    <path class="cls-1" d="M76.53,32.3c-.05,2.77-4.17,2.77-4.22,0,.05-2.77,4.17-2.77,4.22,0Z"/>
    <path class="cls-13" d="M76.33,32.3c-.04,2.52-3.79,2.52-3.83,0,.04-2.52,3.79-2.52,3.83,0Z"/>
    <path class="cls-13" d="M76.14,32.3c-.04,2.27-3.41,2.27-3.45,0,.04-2.27,3.41-2.27,3.45,0Z"/>
    <path class="cls-36" d="M75.95,32.3c-.03,2.02-3.03,2.02-3.07,0,.03-2.02,3.03-2.02,3.07,0Z"/>
    <path class="cls-2" d="M75.76,32.3c0,1.76-2.68,1.76-2.68,0,0-1.76,2.68-1.75,2.68,0Z"/>
    <path class="cls-28" d="M75.57,32.3c0,1.5-2.29,1.5-2.3,0,0-1.5,2.29-1.5,2.3,0Z"/>
    <path class="cls-32" d="M75.38,32.3c.02,1.24-1.94,1.24-1.92,0-.02-1.24,1.94-1.24,1.92,0Z"/>
    <path class="cls-40" d="M75.18,32.3c.01,1-1.55,1-1.53,0-.01-.99,1.55-.99,1.53,0Z"/>
    <path class="cls-24" d="M74.99,32.3c.01.75-1.16.75-1.15,0-.01-.75,1.16-.75,1.15,0Z"/>
    <path class="cls-12" d="M74.8,32.3c0,.5-.77.5-.77,0,0-.5.77-.5.77,0Z"/>
    <path class="cls-31" d="M74.61,32.3c0,.25-.39.25-.38,0,0-.25.39-.25.38,0Z"/>
  </g>
  <rect class="cls-9" x="120.66" y="19.43" width="16.62" height=".67"/>
  <path class="cls-9" d="M26.12,44.77c-12.42.32-21.16-12.28-18.58-24.13.1-.47-.3-.95-.79-.94,0,0-6.74,0-6.74,0v-.67h7.27c.36,0,.67-.24.77-.58C11.54,4.44,29.32-4.79,41.38,4.29c16.68,12.28,4.4,40.99-15.27,40.48ZM11.97,19.7c-2.22.63-1.99,10.43-1.28,12.07,1.62,7,7.53,11.83,14.66,11.78,22.59.18,32.87-38.82,7.15-40.55-8.83-.01-17.07,6.81-20.43,14.93-.23.5.18,1.13.74,1.11,0,0,32.01,0,32.01,0v.67H11.97Z"/>
  <path class="cls-9" d="M104.58,22.73c7.65-2.08,11.36-4.17,12.99-6.43.49-6.58-5.09-4.83-7.47-1.53l-.54-.38c1.53-2.61,6.23-5.09,9.06-6.76.32-.2.48-.6.36-.95-.4-1.31-3.13.33-4.44.73-.17-.63-.96-.86-1.39-.38-.7.77-1.51,1.55-2.41,2.31-2.04,1.74-3.81,2.79-3.89,2.83-.08-.17-.23-.47-.33-.63,3.96-1.97,7.45-7.06,7.18-8.87l2.41-.25c-.37.83-.74,1.68-1.33,2.53-.45.62.24,1.5.94,1.2,1.93-.74,3.57-1.15,4.62-1.15,1.38-.14,2.21,1.25.97,2.2-.78.82-4.84,1.88-5.02,2.95-.05,1.11,1.36.92,2.04,1.47.63.34.91,1.04.85,1.73-.03.7.88,1.11,1.36.59,2.96-2.96,6.02-7.26,5.92-10.73-.55-2.17-7.79-1.03-9.15-.93-.05-.05-.11-.09-.17-.12.17-.15.27-.38.27-.61,4.93-.67,17-2.76,9.32,7.84-4.93,7.7-16.74,13.5-22.03,14l-.13-.66Z"/>
  <path class="cls-9" d="M161.08,27.1c-9.24-.04-17.36-5.13-22.8-12.4-.24-.31-.66-.4-1-.23-1.44.74-2.65,1.29-3.51,1.6-.04-.09-.22-.52-.27-.62.11-.05,1.09-.48,2.5-1.19.38-.23.92-.36,1.03-.85.05-.22.01-.45-.11-.64-3.72-5.49-5.59-10.72-5.67-10.94l.6-.27c.18.39.25.88.56,1.18.89,2.6,3.97,8.37,6.31,9.81,2.01-.85,3.66-2.64,4.61-3.76,1.92-2.37,3.6-6.26-.5-6.79-1.75-.38-8-.25-9.13-.06h0s0,0,0,0l-.11-.66c2.84-.46,9.06-1.34,12.52-.42,3.53.95,4.88,3.09,2.68,5.95-.81,1.04-3.54,3.21-8.76,6.16-.21.12-.36.33-.4.58s.04.49.21.67c7.85,7.61,13.71,10.67,21.35,6.85l8.8,4.24c-.15.07-3.61,1.78-8.92,1.78Z"/>
  <path class="cls-9" d="M51.1,28.72c2.68-2.04,7.18-3.89,10.97-6.6-1.36-3.91-1.26-6.94,2.19-10.9,2.7-3.08,6.96-5.59,11.65-6.9.38-.11.63-.48.57-.88-.05-.39-.39-.69-.79-.69h-9.02v-.67h11.93c1.06,0,.76-1.42.8-2.09h3.19c.04.67-.27,2.09.8,2.09,0,0,12,0,12,0v.67h-5.39c-.87-.02-1.1,1.28-.27,1.55,1.87.67,3.37,1.62,4.46,2.84.23.25.59.33.9.2,2.08-.85,3.34-1.35,3.35-1.35l5.84,3.9-.1.27c-2.49-.28-5.02-.16-7.48.35-.4.08-.67.45-.63.85.23,2.58-.97,5.41-3.36,7.98-6.39,7.05-21.95,10.86-29.32,4.03-.24-.24-.62-.3-.92-.15-5.77,2.92-8.15,4.32-11.02,6.07l-.35-.57ZM78.61,16.2c-4.08,1.39-8.11,3.25-12.1,5.06-.24.11-.4.33-.45.58,1.1,2.85,6.22,4.09,10.05,4.14.86-.13,3.27.3,3.29-.95,0,0,0-8.04,0-8.04,0-.43-.37-.81-.8-.8ZM94.07,11.19c-1.43.48-11.71,2.82-11.48,4.07.15.37-.37,9.33.34,9.29.21.15.49.19.73.1,5.62-1.96,11.49-6.82,11.21-12.71-.02-.41-.39-.75-.8-.75ZM78.61,4.16c-7.25,1.26-16.21,7.58-14.23,15.24.14.63.57,1.5,1.35,1.12,4.29-2.19,8.76-4.25,13.21-6.24.29-.13.47-.41.47-.73V4.96c0-.43-.37-.81-.8-.8ZM83.4,3.73c-.43,0-.81.37-.8.8,0,0,0,6.9,0,6.9-.02.56.61.97,1.12.73,2.86-1.25,5.78-2.5,8.69-3.7.25-.1.42-.32.48-.58-.89-2.69-5.97-4.01-9.49-4.14Z"/>
  <path class="cls-9" d="M81.69,45.32c-5.41,0-8.18-5.12-8.29-5.34l.57-.31c1.47,3.47,9.39,7.04,11.77.3.08-.22,0-10.8.02-11.03,0-.44-.36-.8-.8-.8h-28.16v-.67h28.16c.73,0,.86-.74.8-1.32,0-.35-.23-.64-.55-.77,1.73-.74,3.34-1.64,4.79-2.66l.19.17c-.54.83-2.22,4.43-.43,4.57,0,0,11.48,0,11.48,0v.67s-11.48,0-11.48,0c-.44,0-.8.36-.8.8-.45,6.49,2.55,16.01-7.27,16.38Z"/>
</svg>