<svg width="340" height="56" viewBox="0 0 340 56" fill="none" xmlns="http://www.w3.org/2000/svg">
<rect x="0.5" y="0.5" width="339" height="55" rx="27.5" stroke="white"/>
<path d="M34.788 34.362H43.266V29.79H34.788V34.362ZM43.266 23.742H34.788V28.134H43.266V23.742ZM33.078 22.05H45.048V37.152H43.266V36.054H34.788V37.224H33.078V22.05ZM64.83 26.226H58.89C60.348 29.124 62.796 31.788 65.496 33.156C65.1 33.498 64.506 34.182 64.236 34.632C61.662 33.174 59.448 30.636 57.864 27.72V32.526H61.086V34.218H57.864V37.404H56.1V34.218H52.806V32.526H56.1V27.738C54.516 30.654 52.284 33.174 49.764 34.686C49.494 34.272 48.936 33.642 48.576 33.3C51.186 31.914 53.616 29.16 55.092 26.226H49.206V24.534H56.1V20.898H57.864V24.534H64.83V26.226ZM74.136 28.89V24.948H68.826V27.324H67.332V23.796H74.136V22.878H68.43V21.6H81.534V22.878H75.756V23.796H82.686V27.324H81.138V24.948H75.756V28.89H74.136ZM76.584 28.53V27.558H80.724V28.53H76.584ZM76.584 25.758H80.274V26.73H76.584V25.758ZM69.312 28.53V27.558H73.344V28.53H69.312ZM69.672 25.758H73.326V26.73H69.672V25.758ZM70.518 33.732H74.046V32.706H70.518V33.732ZM74.046 30.6H70.518V31.662H74.046V30.6ZM79.482 31.662V30.6H75.648V31.662H79.482ZM75.648 33.732H79.482V32.706H75.648V33.732ZM76.98 36H80.724C81.624 36 81.804 35.694 81.912 34.02C82.254 34.272 82.884 34.506 83.334 34.56C83.118 36.738 82.632 37.296 80.814 37.296H76.872C74.658 37.296 74.046 36.882 74.046 35.262V34.92H70.518V35.784H68.916V29.43H81.12V34.92H75.648V35.262C75.648 35.892 75.864 36 76.98 36ZM101.154 28.782V30.456H93.9V35.37C93.9 36.396 93.648 36.882 92.892 37.17C92.154 37.422 90.948 37.476 89.274 37.458C89.166 36.972 88.842 36.216 88.554 35.73C89.904 35.784 91.254 35.766 91.668 35.766C92.046 35.748 92.154 35.658 92.154 35.352V30.456H84.882V28.782H92.154V25.92H93.126C94.224 25.308 95.376 24.498 96.294 23.724H86.736V22.086H98.058L98.436 21.978L99.696 22.932C98.166 24.498 95.916 26.172 93.9 27.288V28.782H101.154ZM109.632 35.64L108.3 36.666C107.778 35.928 106.608 34.848 105.618 34.128L106.878 33.228C107.868 33.912 109.056 34.92 109.632 35.64ZM106.266 28.188V29.412H110.118V28.188H106.266ZM106.266 25.83V27.072H110.118V25.83H106.266ZM115.734 25.83H111.756V27.072H115.734V25.83ZM115.734 29.412V28.188H111.756V29.412H115.734ZM119.046 31.806V33.228H115.068V35.73C115.068 36.576 114.888 36.99 114.24 37.224C113.574 37.44 112.566 37.458 111.09 37.458C111 37.008 110.766 36.396 110.55 35.982C111.63 36.018 112.746 36.018 113.052 36.018C113.34 36 113.43 35.928 113.43 35.676V33.228H102.972V31.806H113.43V30.6H104.7V24.66H110.118V23.634H103.404V22.212H110.118V20.916H111.756V22.212H118.632V23.634H111.756V24.66H117.372V30.6H115.068V31.806H119.046ZM126.642 23.076H123.294V24.354H126.642V23.076ZM123.294 27H126.642V25.596H123.294V27ZM128.208 21.672V28.368H123.294V37.404H121.638V21.672H128.208ZM131.286 27.036H134.76V25.596H131.286V27.036ZM134.76 23.076H131.286V24.354H134.76V23.076ZM136.47 21.672V35.262C136.47 36.306 136.236 36.81 135.552 37.098C134.85 37.368 133.752 37.404 132.078 37.404C132.024 36.936 131.736 36.144 131.484 35.676C132.672 35.73 133.932 35.712 134.292 35.712C134.652 35.694 134.76 35.586 134.76 35.262V28.386H129.684V21.672H136.47ZM141.006 25.29V27.936H139.44V23.814H142.032C141.708 23.166 141.15 22.356 140.628 21.744L142.068 21.096C142.716 21.816 143.436 22.824 143.742 23.508L143.094 23.814H146.424C146.172 23.094 145.65 22.104 145.164 21.348L146.622 20.808C147.234 21.618 147.846 22.752 148.08 23.472L147.198 23.814H150.24C150.87 22.986 151.572 21.852 151.986 21.006L153.75 21.564C153.228 22.338 152.634 23.13 152.076 23.814H154.686V27.936H153.03V25.29H141.006ZM154.956 30.978V32.526H147.864V35.532C147.864 36.45 147.63 36.918 146.892 37.17C146.154 37.404 145.092 37.422 143.526 37.422C143.4 36.954 143.076 36.27 142.824 35.802C144.084 35.856 145.344 35.856 145.704 35.838C146.064 35.82 146.154 35.748 146.154 35.478V32.526H139.134V30.978H146.154V29.736H147C147.702 29.358 148.422 28.872 149.034 28.386H142.194V26.928H150.636L150.996 26.838L152.076 27.648C150.996 28.8 149.412 29.952 147.864 30.744V30.978H154.956ZM173.082 23.454V25.002H163.254V23.454H167.286V20.898H168.96V23.454H173.082ZM169.194 26.046L170.49 25.326C171.606 26.46 172.848 28.026 173.388 29.106L171.984 29.916C171.498 28.854 170.292 27.234 169.194 26.046ZM165.486 25.38L166.998 26.01C166.242 27.504 165.108 29.034 163.92 30.06C163.668 29.736 163.128 29.25 162.786 28.998C163.866 28.098 164.91 26.64 165.486 25.38ZM163.29 30.672L162.354 31.914C162.084 31.32 161.526 30.294 161.004 29.412V37.404H159.438V29.736C158.862 31.482 158.16 33.102 157.404 34.164C157.242 33.696 156.864 33.048 156.594 32.67C157.692 31.176 158.754 28.512 159.294 26.208H156.972V24.66H159.438V20.898H161.004V24.66H163.074V26.208H161.004V27.36C161.508 28.008 162.966 30.168 163.29 30.672ZM169.536 28.566L171.228 28.908C170.742 30.474 170.058 31.914 169.14 33.174C170.31 34.416 171.75 35.388 173.424 35.982C173.046 36.306 172.506 37.008 172.254 37.458C170.616 36.774 169.23 35.748 168.06 34.47C166.818 35.73 165.288 36.756 163.362 37.476C163.182 37.098 162.768 36.468 162.498 36.144C164.388 35.478 165.9 34.452 167.052 33.21C166.17 31.986 165.468 30.6 164.928 29.088L166.368 28.674C166.782 29.826 167.358 30.924 168.078 31.896C168.744 30.888 169.23 29.754 169.536 28.566ZM184.62 22.068L186.276 21.366C187.41 23.598 189.552 26.28 191.19 27.774C190.74 28.116 190.11 28.764 189.768 29.232C188.112 27.486 185.97 24.552 184.62 22.068ZM179.58 21.366L181.47 21.888C180.282 24.75 178.41 27.486 176.538 29.232C176.196 28.872 175.404 28.26 174.936 27.99C176.844 26.46 178.572 23.94 179.58 21.366ZM184.836 31.266L186.438 30.528C188.04 32.436 189.804 34.92 190.686 36.576L188.976 37.494C188.76 37.062 188.49 36.576 188.166 36.036C183.756 36.306 179.094 36.54 175.908 36.702L175.692 34.938C176.43 34.92 177.258 34.884 178.158 34.848C179.346 32.688 180.678 29.682 181.416 27.378L183.396 27.864C182.46 30.114 181.218 32.742 180.084 34.776C182.28 34.686 184.746 34.578 187.176 34.452C186.438 33.354 185.61 32.22 184.836 31.266ZM198.354 29.754V34.236C199.542 34.02 200.766 33.768 201.972 33.516L202.098 35.028C199.11 35.712 195.888 36.414 193.584 36.918L193.098 35.226C194.07 35.064 195.312 34.83 196.68 34.578V29.754H193.692V28.134H201.504V29.754H198.354ZM204.762 21.906L205.86 20.988C206.742 21.564 207.84 22.446 208.362 23.058L207.192 24.102C206.688 23.472 205.644 22.536 204.762 21.906ZM208.992 25.74H203.934C204.33 31.41 205.59 35.694 207.156 35.694C207.588 35.694 207.804 34.722 207.912 32.382C208.29 32.778 208.92 33.174 209.388 33.336C209.1 36.576 208.506 37.458 207.012 37.458C204.042 37.458 202.62 32.22 202.17 25.74H193.044V24.102H202.062C202.026 23.076 201.99 22.032 201.99 20.988H203.79C203.772 22.032 203.79 23.094 203.826 24.102H208.992V25.74ZM222.816 25.11C222.816 25.794 223.374 26.352 224.058 26.352C224.742 26.352 225.3 25.794 225.3 25.11C225.3 24.408 224.742 23.868 224.058 23.868C223.374 23.868 222.816 24.408 222.816 25.11ZM221.826 25.11C221.826 23.85 222.816 22.842 224.058 22.842C225.318 22.842 226.326 23.85 226.326 25.11C226.326 26.352 225.318 27.342 224.058 27.342C222.816 27.342 221.826 26.352 221.826 25.11ZM210.81 31.086C211.314 30.672 211.674 30.33 212.178 29.826C213.024 28.98 214.518 27.072 215.688 25.668C216.696 24.48 217.65 24.282 218.946 25.524C220.08 26.586 221.556 28.134 222.618 29.268C223.842 30.564 225.66 32.526 227.046 34.02L225.48 35.676C224.22 34.164 222.672 32.31 221.556 31.014C220.512 29.808 218.874 28.044 218.154 27.342C217.506 26.712 217.146 26.766 216.588 27.468C215.796 28.44 214.392 30.33 213.6 31.32C213.222 31.842 212.808 32.418 212.52 32.832L210.81 31.086ZM229.746 27.972C230.34 28.008 231.456 28.08 232.428 28.08H242.22C243.084 28.08 243.786 28.008 244.236 27.972V30.204C243.84 30.186 243.012 30.114 242.22 30.114H232.428C231.438 30.114 230.358 30.15 229.746 30.204V27.972ZM258.644 22.392C259.13 23.094 259.886 24.354 260.3 25.2L259.04 25.74C258.572 24.714 258.05 23.778 257.42 22.914L258.644 22.392ZM261.056 21.528C261.56 22.194 262.316 23.436 262.766 24.264L261.506 24.822C261.002 23.796 260.444 22.896 259.814 22.05L261.056 21.528ZM250.904 22.086C252.02 22.716 254.036 24.048 254.9 24.66L253.82 26.208C252.902 25.542 250.976 24.282 249.878 23.652L250.904 22.086ZM247.916 34.92C249.914 34.578 252.11 33.912 254 32.868C257.006 31.158 259.454 28.746 260.894 26.19L261.992 28.098C260.372 30.546 257.87 32.85 254.954 34.56C253.136 35.604 250.616 36.468 248.978 36.774L247.916 34.92ZM248.15 26.172C249.284 26.784 251.336 28.044 252.182 28.638L251.138 30.24C250.202 29.556 248.276 28.332 247.142 27.72L248.15 26.172Z" fill="#F0FAFF"/>
<path d="M297.46 20.0179H292.027V17H302.527V27.5627H299.527V22.2059L292.156 29.621L290.035 27.4873L297.46 20.0179Z" fill="#F0FAFF"/>
<path d="M290.473 19.9424H281.473V38.0499H299.473V28.9962H296.473V35.032H284.473V22.9603H290.473V19.9424Z" fill="#F0FAFF"/>
</svg>
