<svg width="13" height="13" viewBox="0 0 13 13"  xmlns="http://www.w3.org/2000/svg">
<path d="M6.625 0C5.41359 0 4.22939 0.359225 3.22214 1.03225C2.21488 1.70527 1.42983 2.66187 0.966241 3.78106C0.502654 4.90026 0.381358 6.1318 0.617693 7.31993C0.854027 8.50806 1.43738 9.59943 2.29397 10.456C3.15057 11.3126 4.24194 11.896 5.43008 12.1323C6.61821 12.3686 7.84974 12.2474 8.96894 11.7838C10.0881 11.3202 11.0447 10.5351 11.7178 9.52787C12.3908 8.52062 12.75 7.33641 12.75 6.125C12.75 4.50055 12.1047 2.94263 10.956 1.79397C9.80737 0.645311 8.24945 0 6.625 0ZM6.625 2.625C6.7548 2.625 6.88168 2.66349 6.9896 2.7356C7.09752 2.80771 7.18163 2.9102 7.2313 3.03011C7.28097 3.15003 7.29397 3.28198 7.26864 3.40928C7.24332 3.53658 7.18082 3.65351 7.08904 3.74529C6.99726 3.83707 6.88033 3.89957 6.75303 3.92489C6.62573 3.95021 6.49378 3.93722 6.37387 3.88755C6.25395 3.83788 6.15146 3.75376 6.07935 3.64584C6.00724 3.53792 5.96875 3.41104 5.96875 3.28125C5.96875 3.1072 6.03789 2.94028 6.16096 2.81721C6.28404 2.69414 6.45096 2.625 6.625 2.625ZM8.375 9.67969H4.875V8.69531H6.13282V6.17969H5.3125V5.19531H7.11719V8.69531H8.375V9.67969Z" fill-opacity="0.8"/>
</svg>
