<svg width="81" height="84" viewBox="0 0 81 84" fill="none" xmlns="http://www.w3.org/2000/svg">
<mask id="mask0_1984_926" style="mask-type:luminance" maskUnits="userSpaceOnUse" x="3" y="41" width="59" height="41">
<path d="M11.4023 41.49L3.64867 64.4227L54.1128 81.4849L61.8665 58.5522L11.4023 41.49Z" fill="white"/>
</mask>
<g mask="url(#mask0_1984_926)">
<path d="M58.2519 69.2298C58.6406 68.0801 58.1761 66.5887 56.7237 66.0867L39.5364 60.1405C39.1576 60.0097 38.955 59.6083 39.076 59.2263L40.7249 53.9539C41.1231 52.6833 40.4207 51.3025 39.1596 50.8761L14.0598 42.3897C12.7693 41.9533 11.3636 42.6487 10.9272 43.9392L7.09221 55.2818C6.855 55.9834 6.94328 56.7473 7.33377 57.3759C7.72426 58.0046 8.36907 58.4218 9.10229 58.521L26.6699 60.8888C26.9685 60.9298 27.1279 61.1201 27.1957 61.2303C27.2651 61.3398 27.3643 61.567 27.2678 61.8523L24.8664 68.955C24.6048 69.7288 24.7429 70.5791 25.2331 71.2319C25.7248 71.8838 26.5051 72.2514 27.3203 72.2132L56.0295 70.8878C57.0703 70.8399 57.9211 70.204 58.2506 69.2293L58.2519 69.2298Z" fill="#1A1A1A"/>
</g>
<path fill-rule="evenodd" clip-rule="evenodd" d="M23.8021 68.427C23.8572 68.5729 23.9262 68.7142 24.009 68.8489C24.0557 68.965 24.1116 69.0781 24.1763 69.187C24.2268 69.316 24.2883 69.4414 24.3606 69.5616C24.4145 69.6966 24.4805 69.8274 24.5583 69.9524C24.6122 70.0854 24.6779 70.2142 24.7551 70.3374C24.8339 70.5282 24.9372 70.7104 25.0643 70.8792C25.5556 71.5324 26.3363 71.8986 27.1523 71.8621L55.8619 70.5355C56.9025 70.4877 57.7528 69.8531 58.0829 68.8777C58.3157 68.1884 58.2423 67.3776 57.8341 66.73C57.7823 66.6039 57.7197 66.4814 57.6461 66.3642C57.5988 66.2477 57.5424 66.1342 57.4767 66.025C57.4291 65.9046 57.3718 65.7873 57.3046 65.6746C57.2513 65.5379 57.1856 65.4052 57.1072 65.2786C57.0641 65.1715 57.0133 65.0669 56.9548 64.9659C56.7203 64.3412 56.2278 63.7964 55.4572 63.5301L39.2088 57.91L40.5569 53.6028C40.7788 52.8925 40.6573 52.1479 40.2868 51.5547C40.2339 51.4272 40.1707 51.3041 40.0977 51.1869C40.0503 51.0715 39.9944 50.9598 39.9305 50.8527C39.882 50.7309 39.8241 50.613 39.7573 50.5002C39.7036 50.3636 39.6379 50.2318 39.5613 50.1067C39.5175 49.9982 39.4662 49.8928 39.4078 49.7915C39.1534 49.1216 38.6146 48.5648 37.8928 48.3207L12.7929 39.8343C11.5024 39.398 10.0984 40.0925 9.66203 41.383L5.82658 52.7269C5.59831 53.4021 5.671 54.1359 6.02636 54.751C6.08143 54.897 6.15069 55.0388 6.2339 55.1746C6.28034 55.2896 6.33576 55.4019 6.40004 55.5103C6.45079 55.6402 6.51287 55.7666 6.58612 55.8882C6.63957 56.0219 6.70512 56.1519 6.78259 56.2766L6.78272 56.2768C6.8353 56.4066 6.89923 56.5328 6.97433 56.654L6.98013 56.6633C7.03138 56.787 7.09304 56.9074 7.16499 57.0232C7.55548 57.6519 8.19988 58.0703 8.93352 58.1683L25.6217 60.4188L23.6 66.3984C23.3704 67.0773 23.4483 67.816 23.8021 68.427Z" fill="#1A1A1A"/>
<mask id="mask1_1984_926" style="mask-type:luminance" maskUnits="userSpaceOnUse" x="2" y="38" width="59" height="41">
<path d="M10.0469 38.2893L2.222 61.4326L52.6861 78.4948L60.511 55.3515L10.0469 38.2893Z" fill="white"/>
</mask>
<g mask="url(#mask1_1984_926)">
<path d="M56.623 65.9321C57.0117 64.7825 56.5472 63.2911 55.0948 62.7891L37.9075 56.8429C37.5287 56.7121 37.3261 56.3107 37.4471 55.9286L39.096 50.6563C39.4942 49.3857 38.7918 48.0048 37.5307 47.5785L12.4309 39.092C11.1399 38.6569 9.73424 39.3523 9.29833 40.6416L5.4633 51.9842C5.2261 52.6858 5.31479 53.4485 5.70528 54.0771C6.09577 54.7058 6.74016 55.1242 7.4738 55.2222L25.041 57.5912C25.34 57.6309 25.4994 57.8213 25.5672 57.9315C25.6366 58.0409 25.7358 58.2682 25.6389 58.5547L23.2379 65.6561C22.9763 66.4299 23.114 67.2815 23.6046 67.933C24.0959 68.5862 24.8766 68.9525 25.6918 68.9143L54.401 67.589C55.4418 67.5411 56.2922 66.9063 56.6222 65.9305L56.623 65.9321Z" fill="#1A1A1A"/>
<path d="M56.623 65.9321C57.0117 64.7825 56.5472 63.2911 55.0948 62.7891L37.9075 56.8429C37.5287 56.7121 37.3261 56.3107 37.4471 55.9286L39.096 50.6563C39.4942 49.3857 38.7918 48.0048 37.5307 47.5785L12.4309 39.092C11.1399 38.6569 9.73424 39.3523 9.29833 40.6416L5.4633 51.9842C5.2261 52.6858 5.31479 53.4485 5.70528 54.0771C6.09577 54.7058 6.74016 55.1242 7.4738 55.2222L25.041 57.5912C25.34 57.6309 25.4994 57.8213 25.5672 57.9315C25.6366 58.0409 25.7358 58.2682 25.6389 58.5547L23.2379 65.6561C22.9763 66.4299 23.114 67.2815 23.6046 67.933C24.0959 68.5862 24.8766 68.9525 25.6918 68.9143L54.401 67.589C55.4418 67.5411 56.2922 66.9063 56.6222 65.9305L56.623 65.9321Z" fill="#1A1A1A"/>
<path d="M56.787 66.2964C57.1762 65.1455 56.7101 63.6549 55.2592 63.1521L38.0715 57.2071C37.6928 57.0764 37.4901 56.6749 37.6099 56.2925L39.26 51.0205C39.6583 49.7499 38.9547 48.3687 37.6935 47.9423L12.5937 39.4559C11.3028 39.0208 9.89872 39.7153 9.46239 41.0058L5.62737 52.3485C5.39016 53.0501 5.47763 53.8123 5.86812 54.4409C6.2582 55.0708 6.90422 55.4884 7.63745 55.5876L25.2051 57.9555C25.5041 57.9952 25.6631 58.1867 25.7313 58.2958C25.7991 58.406 25.8995 58.6337 25.803 58.919L23.402 66.0204C23.1403 66.7942 23.2781 67.6457 23.7682 68.2985C24.2587 68.9501 25.0395 69.3164 25.8554 69.2798L54.5651 67.9532C55.6059 67.9054 56.4563 67.2706 56.7862 66.2948L56.787 66.2964Z" fill="#1A1A1A"/>
</g>
<path d="M10.1152 40.9155L6.28014 52.2581C5.95766 53.2119 6.58519 54.225 7.58475 54.3596L25.1524 56.7275C26.1507 56.8618 26.7783 57.8748 26.4558 58.8286L24.0543 65.9312C23.6929 67.0001 24.5187 68.0966 25.6466 68.0454L54.3563 66.7188C56.1206 66.6373 56.4749 64.1812 54.8061 63.6047L37.6188 57.6585C36.8002 57.3762 36.3539 56.4927 36.6134 55.6649L38.2635 50.393C38.5225 49.5624 38.0722 48.6747 37.247 48.3957L12.1484 39.9097C11.3097 39.6262 10.4 40.0772 10.1168 40.9146L10.1152 40.9155Z" fill="#DFED8A"/>
<mask id="mask2_1984_926" style="mask-type:luminance" maskUnits="userSpaceOnUse" x="36" y="8" width="39" height="47">
<path d="M36.9258 17.7451L53.726 8.14979L74.8409 45.1193L58.0406 54.7146L36.9258 17.7451Z" fill="white"/>
</mask>
<g mask="url(#mask2_1984_926)">
<path d="M65.8578 50.2394C65.0155 50.7205 63.7746 50.5847 63.1583 49.5223L55.8609 36.9517C55.7003 36.6747 55.3544 36.5772 55.0733 36.7307L51.1903 38.8318C50.2547 39.3388 49.064 38.9994 48.5363 38.0756L38.0342 19.6877C37.4942 18.7423 37.8243 17.5331 38.7697 16.9931L47.0792 12.2472C47.5932 11.9537 48.2059 11.9059 48.7588 12.1159C49.3118 12.3259 49.7378 12.7677 49.9279 13.3277L54.4767 26.7448C54.5546 26.9727 54.7283 27.0686 54.8251 27.1049C54.9216 27.1426 55.1151 27.1855 55.3241 27.0661L60.5274 24.0943C61.0943 23.7705 61.7824 23.7487 62.3695 24.0331C62.9563 24.3189 63.3641 24.8747 63.459 25.5199L66.8179 48.2422C66.9398 49.0659 66.5713 49.8307 65.8573 50.2385L65.8578 50.2394Z" fill="#1A1A1A"/>
</g>
<path fill-rule="evenodd" clip-rule="evenodd" d="M59.97 23.3341C60.0888 23.3555 60.2062 23.3879 60.3206 23.4312C60.3974 23.4465 60.4735 23.4665 60.5486 23.4911C60.6734 23.5098 60.7971 23.5406 60.9177 23.5835C61.0553 23.6081 61.1911 23.6475 61.3226 23.7016C61.409 23.7213 61.4945 23.7468 61.5785 23.7782C61.7432 23.8106 61.9049 23.8643 62.0595 23.9394C62.6472 24.2248 63.0541 24.781 63.1504 25.4267L66.5084 48.1495C66.6303 48.973 66.2628 49.7372 65.5482 50.1455C65.048 50.431 64.4082 50.4991 63.8417 50.2856C63.7153 50.2609 63.5905 50.2237 63.4695 50.1733C63.3952 50.1564 63.3217 50.1352 63.2492 50.1094C63.1579 50.0933 63.0673 50.0708 62.9783 50.0415C62.8399 50.0209 62.7029 49.9855 62.57 49.9346C62.4767 49.916 62.3842 49.8907 62.2936 49.8582C61.7748 49.7657 61.2805 49.4635 60.9576 48.9069L54.0577 37.019L50.8817 38.7385C50.3641 39.0184 49.7687 39.0397 49.2505 38.8467C49.1214 38.8212 48.995 38.783 48.8733 38.7328C48.8013 38.7161 48.7303 38.6955 48.6606 38.6709C48.5687 38.6546 48.478 38.6319 48.3893 38.603C48.2498 38.5818 48.1128 38.5459 47.9808 38.4961C47.8861 38.4771 47.7928 38.4514 47.7018 38.4191C47.1453 38.3176 46.6349 37.9821 46.3366 37.4597L35.8345 19.0718C35.2945 18.1264 35.6242 16.9186 36.5696 16.3787L44.88 11.6322C45.3811 11.346 45.9768 11.2929 46.5194 11.4862C46.6384 11.5077 46.7562 11.5401 46.8715 11.5837C46.9474 11.5989 47.0227 11.6186 47.0972 11.6429C47.2228 11.6617 47.3473 11.6927 47.4692 11.7362C47.5887 11.7576 47.7071 11.7903 47.8229 11.8343C47.8397 11.8406 47.8564 11.8472 47.873 11.854C47.9594 11.8736 48.045 11.8991 48.1293 11.9306C48.2372 11.9519 48.3441 11.9824 48.4488 12.0222C49.0017 12.2322 49.4287 12.6736 49.6179 13.234L53.9414 25.9836L58.3268 23.4789C58.8307 23.1911 59.4311 23.1415 59.97 23.3341Z" fill="#1A1A1A"/>
<mask id="mask3_1984_926" style="mask-type:luminance" maskUnits="userSpaceOnUse" x="34" y="7" width="39" height="48">
<path d="M34.2031 17.1597L51.1577 7.47622L72.2725 44.4458L55.318 54.1292L34.2031 17.1597Z" fill="white"/>
</mask>
<g mask="url(#mask3_1984_926)">
<path d="M63.0258 49.4509C62.1835 49.9319 60.9425 49.7961 60.3262 48.7337L53.0289 36.1631C52.8683 35.8861 52.5224 35.7886 52.2413 35.9421L48.3583 38.0432C47.4226 38.5503 46.2319 38.2109 45.7043 37.287L35.2022 18.8991C34.6631 17.9532 34.9932 16.744 35.9377 16.2046L44.2472 11.4586C44.7612 11.1651 45.373 11.1178 45.9259 11.3278C46.4788 11.5378 46.9058 11.9791 47.095 12.5396L51.6447 25.9562C51.7216 26.1846 51.8954 26.2805 51.9922 26.3168C52.0887 26.3545 52.2821 26.3975 52.492 26.2776L57.6945 23.3062C58.2613 22.9825 58.9504 22.9601 59.5366 23.245C60.1243 23.5304 60.5312 24.0866 60.6261 24.7319L63.9849 47.4541C64.1069 48.2779 63.7392 49.0422 63.0243 49.4505L63.0258 49.4509Z" fill="#1A1A1A"/>
<path d="M63.0258 49.4509C62.1835 49.9319 60.9425 49.7961 60.3262 48.7337L53.0289 36.1631C52.8683 35.8861 52.5224 35.7886 52.2413 35.9421L48.3583 38.0432C47.4226 38.5503 46.2319 38.2109 45.7043 37.287L35.2022 18.8991C34.6631 17.9532 34.9932 16.744 35.9377 16.2046L44.2472 11.4586C44.7612 11.1651 45.373 11.1178 45.9259 11.3278C46.4788 11.5378 46.9058 11.9791 47.095 12.5396L51.6447 25.9562C51.7216 26.1846 51.8954 26.2805 51.9922 26.3168C52.0887 26.3545 52.2821 26.3975 52.492 26.2776L57.6945 23.3062C58.2613 22.9825 58.9504 22.9601 59.5366 23.245C60.1243 23.5304 60.5312 24.0866 60.6261 24.7319L63.9849 47.4541C64.1069 48.2779 63.7392 49.0422 63.0243 49.4505L63.0258 49.4509Z" fill="#1A1A1A"/>
<path d="M63.3383 49.538C62.4951 50.0196 61.2545 49.8823 60.6378 48.8214L53.3414 36.2503C53.1808 35.9733 52.8349 35.8758 52.5532 36.0283L48.6708 38.1304C47.7351 38.6374 46.5439 38.2971 46.0163 37.3732L35.5142 18.9854C34.9751 18.0394 35.3048 16.8317 36.2502 16.2917L44.5597 11.5458C45.0737 11.2523 45.6849 11.2041 46.2379 11.4141C46.7917 11.6235 47.2183 12.0663 47.4084 12.6262L51.9572 26.0433C52.0341 26.2718 52.2088 26.3672 52.3047 26.404C52.4016 26.4402 52.5955 26.4841 52.8045 26.3647L58.007 23.3934C58.5738 23.0696 59.2629 23.0472 59.85 23.3317C60.4362 23.6166 60.8432 24.1729 60.9395 24.8185L64.2974 47.5413C64.4194 48.365 64.0517 49.1293 63.3368 49.5376L63.3383 49.538Z" fill="#1A1A1A"/>
</g>
<path d="M36.2772 16.8105L44.5867 12.0646C45.2855 11.6655 46.1762 12.0026 46.435 12.766L50.9838 26.1831C51.2421 26.9456 52.1328 27.2826 52.8316 26.8835L58.0349 23.9117C58.8179 23.4645 59.8045 23.9442 59.9372 24.8368L63.2951 47.5596C63.5015 48.956 61.6292 49.6102 60.9213 48.3895L53.624 35.819C53.2772 35.2201 52.5158 35.0054 51.9062 35.3357L48.0238 37.4378C47.4119 37.7682 46.6467 37.551 46.3014 36.9464L35.7998 18.5594C35.4489 17.945 35.6633 17.1623 36.2768 16.8119L36.2772 16.8105Z" fill="#DFED8A"/>
</svg>
