<svg width="97" height="77" viewBox="0 0 97 77" fill="none" xmlns="http://www.w3.org/2000/svg">
<path d="M70.2329 76.2436C66.9168 76.2436 63.7671 75.7224 60.8719 74.6931C56.476 73.1292 52.729 70.2621 50.3213 66.6198C49.6991 65.6785 49.155 64.7023 48.6974 63.7062C48.3497 63.7245 47.9986 63.7345 47.6525 63.7345C47.4029 63.7345 47.15 63.7295 46.8988 63.7195C38.5328 63.4058 30.6095 57.5986 28.0604 49.9105C27.9789 49.6681 27.9024 49.4224 27.8308 49.1767C26.2901 49.1667 24.751 49.009 23.2535 48.7069C18.4116 47.729 14.1105 45.5825 10.8161 42.4996C7.62811 39.5163 5.1323 35.8673 3.39522 31.6539C-0.366786 22.5281 -0.113877 12.5158 0.110745 3.68385C0.170644 1.40946 2.29374 0 4.22716 0C4.31035 0 4.39022 0.00332007 4.47175 0.00664056C6.81281 0.149412 8.16055 2.30428 8.10897 4.30475C8.05572 6.38158 8.00082 8.52814 7.99915 10.678C7.99915 11.2242 8.00248 11.7571 8.00914 12.2601C8.01246 12.5224 8.01745 12.7864 8.02245 13.0487C8.02245 13.0836 8.02245 13.1218 8.02245 13.1599C8.02411 13.1981 8.02744 13.2446 8.02744 13.3077C8.06737 14.4665 8.11895 15.4908 8.1905 16.4404C8.36188 18.733 8.63974 20.8016 9.03907 22.7639C9.21544 23.6271 9.4201 24.4788 9.64805 25.3005C9.67467 25.3968 9.70295 25.4915 9.7329 25.5894L9.73623 25.5994C9.76285 25.6691 9.78781 25.7438 9.80944 25.8218C9.84272 25.9414 9.88764 26.0991 9.90927 26.1622C10.0357 26.5473 10.1705 26.9358 10.3103 27.3126C10.9259 28.9877 11.6663 30.5665 12.5049 32.0042C12.5365 32.0573 12.5648 32.1071 12.5964 32.1603C12.6946 32.2997 12.7761 32.4342 12.851 32.5537C12.8893 32.6168 12.9275 32.6832 12.9691 32.7446C13.1888 33.0733 13.4184 33.4004 13.6513 33.7158C14.1671 34.4131 14.7179 35.0771 15.2886 35.6914C15.4466 35.8607 15.608 36.0284 15.7694 36.1911L15.801 36.221C15.9891 36.377 16.1588 36.5347 16.3235 36.6875C16.4583 36.8136 16.588 36.9332 16.7112 37.0361C17.4 37.6088 18.1321 38.1368 18.8925 38.6082C19.0306 38.6946 19.172 38.7809 19.3151 38.8656C19.405 38.8954 19.4815 38.9253 19.5481 38.9552C19.7161 39.0283 19.8576 39.1162 19.974 39.2159C20.2569 39.3553 20.5431 39.4898 20.8326 39.6159C21.6379 39.9712 22.4765 40.275 23.3234 40.5224C23.345 40.529 23.3667 40.5357 23.3899 40.5406C23.5929 40.5523 23.7776 40.6087 24.0721 40.7199C24.0954 40.7249 24.1187 40.7316 24.142 40.7349C24.5746 40.8262 25.0122 40.9059 25.4498 40.969C26.0022 41.0503 26.558 41.1084 27.1137 41.1433C27.2501 39.8168 27.5097 38.4837 27.8891 37.1656C29.0438 33.153 31.4414 29.5156 34.641 26.9291C36.5362 25.3952 38.6177 24.4008 40.824 23.9724C41.4912 23.8446 42.1717 23.7782 42.8456 23.7782C44.952 23.7782 46.8705 24.424 48.2498 25.5977C50.5277 27.5368 51.546 30.5765 50.9087 33.5348C50.4179 35.8092 49.3047 37.984 47.5993 39.9978C44.5244 43.6302 40.4014 46.3993 35.8656 47.8984C35.9522 48.1042 36.0437 48.3101 36.1402 48.511C36.3016 48.848 36.4829 49.185 36.6776 49.517C36.7625 49.6498 36.854 49.7826 36.9438 49.9121C37.3648 50.5164 37.8407 51.0991 38.3581 51.647C38.4047 51.6968 38.4513 51.7483 38.4995 51.8014C38.5245 51.8279 38.5495 51.8562 38.5761 51.8827L38.7891 52.077C39.0586 52.3193 39.3398 52.5567 39.631 52.7842C40.1917 53.2241 40.7874 53.6325 41.403 53.9977C41.4446 54.021 41.5028 54.0542 41.586 54.1007L41.6027 54.109C41.7491 54.1837 41.8938 54.26 42.0419 54.3314C42.3531 54.4825 42.6709 54.6236 42.992 54.7548L43.2466 54.8594C43.7141 55.0519 44.2316 55.2661 44.6825 55.3723L44.6875 55.3491C44.7673 55.369 44.8456 55.3856 44.9254 55.4039C45.0036 55.4205 45.0835 55.4371 45.1633 55.4537C45.3198 55.4852 45.4795 55.5151 45.6392 55.5417C45.9953 55.6014 46.3597 55.6496 46.7174 55.6844C46.8106 55.6944 46.9038 55.7027 46.9969 55.7094C47.0169 55.0652 47.0801 54.4277 47.1783 53.8018C47.937 49.0787 50.8954 44.9334 55.293 42.4282C56.9768 41.4703 58.6091 40.9839 60.1498 40.9839C61.1798 40.9839 62.1565 41.2064 63.0483 41.643C66.0133 43.0939 67.7171 46.2449 67.1913 49.3062C66.9334 50.8003 66.2379 52.0388 65.624 53.1311C65.1331 54.0027 64.5807 54.8328 63.9767 55.5981C62.6207 57.3197 61.0882 58.7856 59.421 59.951C58.5192 60.5802 57.5808 61.138 56.6141 61.6178C56.6224 61.6344 56.659 61.6958 56.659 61.6958C56.867 62.0162 57.09 62.335 57.3246 62.6421C57.639 63.0538 58.0949 63.6315 58.6107 64.1395C58.664 64.1827 58.7106 64.2259 58.7555 64.2657C58.8337 64.3388 58.9152 64.4085 58.9951 64.4799C59.1249 64.5928 59.2563 64.704 59.3894 64.8119C59.6873 65.0543 59.9984 65.2884 60.3112 65.5058C60.6007 65.7051 60.9069 65.9026 61.2263 66.0902C61.3445 66.1433 61.4493 66.2048 61.5491 66.2662L61.5525 66.2695C61.7189 66.3558 61.8902 66.4388 62.0599 66.5185C62.8836 66.9087 63.7621 67.2423 64.6689 67.5146C64.7122 67.5262 64.797 67.5445 64.8736 67.5628C65.0666 67.6043 65.2978 67.6557 65.5374 67.747C65.98 67.8417 66.4359 67.9247 66.8902 67.9927C67.787 68.1289 68.7204 68.2119 69.6638 68.2434C69.9317 68.2501 70.2079 68.2567 70.4808 68.2567C70.4808 68.2567 70.5973 68.2567 70.6355 68.2567C70.8868 68.2152 71.0066 68.2085 71.1081 68.2085C71.1397 68.2085 71.173 68.2085 71.2046 68.2102C71.321 68.2052 71.4342 68.2036 71.5457 68.2002C71.7137 68.1969 71.8735 68.1936 72.0099 68.182C72.96 68.104 73.9267 67.9728 74.8867 67.7935C75.7885 67.6258 76.7336 67.405 77.697 67.1378C77.7469 67.1245 77.7968 67.1095 77.8451 67.0963C78.1146 66.9634 78.3975 66.897 78.6371 66.8423C78.6837 66.8323 78.7269 66.8223 78.7602 66.8124C79.1828 66.6729 79.6171 66.5235 80.0514 66.3641C84.0097 64.9198 87.7983 62.8861 90.983 61.0882C91.5038 60.7927 92.0762 60.6433 92.6801 60.6433C94.1627 60.6433 95.6818 61.6062 96.3789 62.9824C96.8398 63.8922 96.8798 65.1356 96.4804 66.1483C96.0212 67.3154 95.136 67.9213 94.5087 68.2766C92.2509 69.5533 90.4822 70.4929 88.78 71.3263C83.9282 73.7003 79.5539 75.1762 75.4025 75.8352C73.6738 76.1092 71.935 76.2486 70.2362 76.2486L70.2329 76.2436ZM57.0018 51.1373C56.867 51.2934 56.7339 51.4577 56.6074 51.6204C56.4244 51.8611 56.2481 52.1118 56.0833 52.3675C56.2514 52.2164 56.4161 52.062 56.5758 51.906C56.6158 51.8661 56.6557 51.8263 56.694 51.7881L56.7272 51.7532C56.8138 51.6586 56.902 51.5623 56.9868 51.466C57.3029 51.1058 57.6058 50.7306 57.8886 50.3438C57.8171 50.4052 57.7455 50.4699 57.674 50.533C57.5242 50.6675 57.3712 50.802 57.2164 50.9348C57.1798 50.9663 57.1299 51.0095 57.0633 51.0659C57.0417 51.0892 57.0201 51.1124 57.0001 51.1373H57.0018ZM36.6893 36.7439C36.6077 36.8983 36.5279 37.056 36.4547 37.2087C36.1335 37.8678 35.854 38.5584 35.6244 39.2574C35.6061 39.3155 35.5861 39.3736 35.5695 39.4317C35.9688 39.2391 36.3631 39.0349 36.7492 38.8174C36.824 38.7759 36.8972 38.7327 36.9721 38.6879C37.0121 38.6597 37.0553 38.6331 37.0986 38.6082C37.1618 38.5717 37.3498 38.4588 37.3997 38.4273C37.7225 38.2148 38.042 37.9923 38.3481 37.7649C39.022 37.2668 39.6676 36.7223 40.2699 36.1479L40.4014 36.0251C40.4579 35.9686 40.5178 35.9138 40.5744 35.859C40.5744 35.859 40.7724 35.6449 40.8023 35.6117C41.0736 35.3129 41.3398 35.0008 41.5927 34.6837C41.8872 34.3135 42.1185 34.0013 42.3148 33.6992C42.3497 33.6461 42.388 33.593 42.4263 33.5365C42.4396 33.5166 42.4546 33.4967 42.4695 33.4751L42.5028 33.4103C42.5294 33.3605 42.5544 33.3107 42.5794 33.2609C42.7324 32.9472 42.8622 32.6367 42.9637 32.3362C42.977 32.2864 42.9937 32.2184 43.0219 32.127C43.0386 32.0274 43.0552 31.9195 43.0635 31.8199C43.0635 31.8116 43.0652 31.805 43.0652 31.7967H42.9654C42.9471 31.795 42.8872 31.7934 42.7707 31.7884H42.7408C42.7175 31.7884 42.6908 31.7884 42.6692 31.79C42.4146 31.8199 42.1318 31.8747 41.789 31.9594C41.7674 31.966 41.7474 31.9743 41.7275 31.981C41.5661 32.0407 41.4047 32.1055 41.2499 32.1719C41.1068 32.2333 40.9504 32.318 40.7857 32.4076C40.7192 32.4558 40.6476 32.4973 40.5677 32.5354C40.4596 32.5886 40.3764 32.6351 40.3448 32.6533C40.2283 32.7347 40.1068 32.826 39.9704 32.9306C39.6693 33.1613 39.3731 33.4087 39.0869 33.6677C38.9521 33.7905 38.819 33.9167 38.6909 34.0412C38.6709 34.0611 38.6526 34.0794 38.6327 34.0993C38.0952 34.7019 37.6543 35.2564 37.2883 35.7943C37.0836 36.0948 36.8839 36.4086 36.6992 36.724L36.6876 36.7456L36.6893 36.7439Z" fill="#1A1A1A"/>
<path d="M0.851547 3.07244C0.619074 12.2665 0.45136 21.7387 4.02482 30.3998C5.63885 34.3098 8.00344 37.8375 11.097 40.7295C14.3483 43.7704 18.488 45.6957 22.8336 46.573C31.3355 48.2897 40.2409 44.906 45.7921 38.3523C47.2417 36.6423 48.3227 34.7055 48.7976 32.5104C49.324 30.072 48.5037 27.5575 46.6008 25.9401C44.9203 24.5099 42.4627 24.2185 40.3572 24.6257C38.2998 25.0247 36.4167 25.9799 34.7944 27.2909C31.8104 29.7029 29.5754 33.1295 28.5176 36.8062C27.3835 40.7427 27.3818 44.8001 28.6737 48.6969C31.0815 55.9509 38.6236 61.2333 46.2089 61.518C50.415 61.6769 54.4152 60.4089 57.8525 58.0085C59.4582 56.8878 60.8929 55.4841 62.1034 53.9478C62.6713 53.2294 63.1795 52.4646 63.6295 51.6667C64.2372 50.5857 64.8234 49.5329 65.0359 48.2963C65.4793 45.7189 63.94 43.249 61.6601 42.1333C59.5363 41.0953 57.1617 41.7724 55.2206 42.8749C51.3499 45.0782 48.5187 48.8012 47.8063 53.2327C47.1388 57.3927 48.4489 61.5759 50.7355 65.0324C53.0502 68.5336 56.6287 71.1392 60.5724 72.5413C64.9728 74.1057 69.7917 74.3407 74.3847 73.6107C78.8997 72.8939 83.2536 71.2385 87.3418 69.2404C89.2564 68.3035 91.1295 67.2837 92.9859 66.2375C93.5937 65.8949 94.0836 65.481 94.3476 64.8122C94.585 64.2097 94.595 63.3753 94.2978 62.786C93.7066 61.6206 92.1108 60.7615 90.8372 61.4799C87.2555 63.5012 83.5957 65.4247 79.7216 66.8368C79.2766 66.999 78.8283 67.1563 78.3783 67.3036C78.1923 67.3632 77.7224 67.4294 77.5796 67.5552C77.6111 67.5271 78.1923 67.3781 77.7473 67.5039C77.5862 67.5486 77.4251 67.5966 77.2641 67.6413C76.301 67.9095 75.3262 68.1396 74.3415 68.3233C73.3469 68.5087 72.3423 68.6461 71.3327 68.7306C70.8777 68.767 70.3862 68.7355 69.9378 68.8133C70.597 68.6991 70.2849 68.8034 70.064 68.8084C69.9544 68.8084 69.8448 68.81 69.7352 68.81C69.4347 68.81 69.1325 68.8067 68.8319 68.7968C67.8505 68.767 66.8708 68.6792 65.9011 68.5336C65.4179 68.4607 64.938 68.373 64.4597 68.2704C64.3535 68.2472 64.2472 68.2224 64.1426 68.1992C63.6976 68.0982 64.3136 68.2306 64.3518 68.2505C64.106 68.128 63.7523 68.0899 63.4916 68.0121C62.5335 67.7257 61.597 67.3715 60.692 66.946C60.4961 66.8533 60.3018 66.759 60.1108 66.6597C60.0627 66.6348 59.8916 66.5173 59.8235 66.509L60.1324 66.6795C60.061 66.6398 59.9896 66.6001 59.9199 66.5587C59.5197 66.3286 59.1294 66.0836 58.7492 65.8204C58.4055 65.582 58.07 65.3304 57.7446 65.0655C57.6001 64.948 57.4573 64.8271 57.3161 64.7046C57.2281 64.6285 57.1418 64.5507 57.0554 64.4712C56.7449 64.1915 57.0538 64.4828 57.18 64.5987C56.5423 64.0259 55.9744 63.3456 55.458 62.6652C55.2023 62.3324 54.9615 61.9898 54.7324 61.6372C54.4185 61.1538 55.0429 62.1702 54.6825 61.5527C54.5646 61.3524 54.4517 61.1505 54.3438 60.9452C53.9569 60.2119 53.6264 59.4471 53.3624 58.6608C53.3359 58.5813 53.1964 58.131 53.3359 58.5912C53.4753 59.0514 53.3408 58.6012 53.3209 58.5201C53.2711 58.3429 53.2279 58.1658 53.1864 57.987C53.0884 57.5649 53.0104 57.1378 52.9539 56.7091C52.9025 56.3233 52.8975 55.936 52.8526 55.5519C52.9573 56.4525 52.8593 55.6645 52.8659 55.4294C52.8709 55.201 52.8825 54.9725 52.9008 54.7441C52.9323 54.3302 52.9855 53.918 53.0619 53.5092C53.1034 53.284 53.2943 52.6881 53.0486 53.5092C53.115 53.2873 53.1715 53.0622 53.2445 52.8404C53.3757 52.4431 53.5285 52.0541 53.7045 51.675C53.7908 51.4846 53.8888 51.2992 53.9835 51.1121C54.1296 50.8208 53.6912 51.6154 53.8589 51.3356C53.9303 51.2164 54.0001 51.0956 54.0748 50.9764C54.284 50.6387 54.5098 50.3126 54.7523 49.9981C54.8951 49.8143 55.0429 49.6322 55.1957 49.4551C55.2571 49.3839 55.3185 49.3144 55.3816 49.2449C55.5228 49.0876 55.8765 48.8575 55.3036 49.321C55.9595 48.7896 56.5274 48.1953 57.2398 47.7219C57.3128 47.6722 57.4008 47.6259 57.4722 47.5712C56.9359 47.9934 57.1335 47.7765 57.3178 47.6706C57.5038 47.563 57.6798 47.467 57.8658 47.3726C58.2527 47.1756 58.6529 47.0001 59.063 46.8495C59.3486 46.7452 59.3818 46.8793 58.8654 46.8975C58.9418 46.8942 59.0497 46.8528 59.1228 46.8396C59.2075 46.8247 59.2922 46.8147 59.3769 46.8031C59.802 46.7419 59.0348 46.8329 59.0514 46.8081C59.0697 46.78 59.6459 46.8478 59.6558 46.8776C59.6708 46.9256 58.9368 46.6393 59.3187 46.8064C59.4267 46.8528 59.5379 46.8942 59.6475 46.9389C59.8601 47.0233 59.8302 47.1706 59.3636 46.7783C59.42 46.8247 59.4981 46.8627 59.5595 46.9058C59.6226 46.9488 59.6824 47.0034 59.7455 47.0481C60.1058 47.308 59.3769 46.6177 59.5595 46.8644C59.6558 46.9935 59.777 47.1557 59.8916 47.2716C59.4997 46.8776 59.6226 46.7899 59.7239 47.0018C59.7754 47.1077 59.8302 47.2087 59.8734 47.318C59.9032 47.3891 59.9232 47.4686 59.9564 47.5381C59.6542 46.8859 59.8385 47.0581 59.8617 47.2931C59.8717 47.3908 59.89 47.4901 59.9032 47.5878C59.9398 47.8378 59.7704 47.7898 59.8949 47.2534C59.8617 47.3941 59.8385 47.601 59.8435 47.7484C59.8252 47.2319 59.9996 47.1971 59.8949 47.5067C59.8518 47.6358 59.7986 47.76 59.7438 47.8825C59.5861 48.2367 59.4067 48.5827 59.2274 48.927C58.9949 49.3707 59.4997 48.4569 59.3221 48.7549C59.2739 48.8343 59.2307 48.9121 59.1826 48.9916C59.0547 49.2084 58.9202 49.4203 58.7824 49.6322C58.3291 50.3209 57.8259 50.9797 57.2813 51.5988C57.1451 51.7528 57.004 51.9051 56.8645 52.0557C56.647 52.2908 57.2696 51.6468 57.0405 51.8703C56.9591 51.9514 56.8778 52.0342 56.7964 52.1137C56.5008 52.4017 56.1953 52.6782 55.8798 52.9463C55.5643 53.2145 55.2421 53.4694 54.9067 53.7144C54.7407 53.8353 54.5713 53.9545 54.4019 54.072C54.2309 54.1879 53.4504 54.6299 54.2209 54.2044C53.4953 54.605 52.7879 55.0073 52.0224 55.3301C51.6438 55.4907 51.2585 55.6347 50.8683 55.7655C50.7803 55.7953 50.694 55.8201 50.6059 55.8499C51.3017 55.6049 51.0277 55.7274 50.8617 55.7721C50.6408 55.8333 50.42 55.8946 50.1975 55.9459C49.3838 56.1396 48.5535 56.2687 47.7183 56.325C47.4974 56.3399 46.7701 56.3399 47.6934 56.3382C47.4941 56.3382 47.2982 56.3416 47.0989 56.3382C46.6805 56.3316 46.2637 56.3068 45.8469 56.2671C45.4533 56.2306 45.0598 56.1777 44.6712 56.1115C44.4969 56.0817 44.3242 56.0485 44.1515 56.0138C44.0651 55.9972 43.9788 55.979 43.8924 55.9592C43.8061 55.9409 43.7214 55.9211 43.6351 55.9012L44.0601 56.0038C43.283 55.9029 42.4577 55.5337 41.7371 55.2407C41.3884 55.1 41.0463 54.9477 40.7075 54.7838C40.5083 54.6878 40.3123 54.5868 40.1164 54.4842C39.9636 54.4064 39.6996 54.2375 40.3605 54.6216C40.2459 54.5537 40.1297 54.4892 40.0151 54.4229C39.3293 54.0207 38.6717 53.5721 38.0474 53.0821C37.7352 52.8371 37.4313 52.5805 37.1357 52.3156C37.071 52.2577 37.0062 52.1981 36.9415 52.1385C36.6376 51.8637 37.1274 52.3173 37.1374 52.3272C36.9531 52.1799 36.7887 51.9812 36.6276 51.8107C36.0697 51.2197 35.5533 50.589 35.0867 49.9236C34.987 49.7795 34.889 49.6355 34.7927 49.4865C34.4108 48.9005 35.0468 49.9236 34.7629 49.4385C34.5503 49.0777 34.3544 48.7085 34.1734 48.3327C34.0023 47.9768 33.8446 47.611 33.7001 47.2402C33.6354 47.0746 33.5756 46.9091 33.5158 46.7402C33.4809 46.6359 33.4461 46.53 33.4112 46.4241C33.3215 46.1625 33.6071 47.1061 33.4544 46.5631C33.2318 45.7784 33.0708 44.9756 32.9728 44.1644C32.928 43.792 32.8948 43.4178 32.8765 43.0437C32.8715 42.9345 32.8582 42.8219 32.8632 42.7126C32.8632 42.7209 32.8732 43.4361 32.8748 43.0156C32.8748 42.7954 32.8748 42.5736 32.8815 42.3518C32.9064 41.5572 32.9861 40.7626 33.1189 39.9763C33.187 39.5806 33.2783 39.1949 33.3597 38.8042C33.1721 39.6998 33.3182 38.9897 33.378 38.7761C33.4461 38.541 33.5158 38.3076 33.5922 38.0759C33.8429 37.3177 34.1418 36.5777 34.4922 35.8593C34.5785 35.6805 34.6682 35.5034 34.7629 35.3263C35.0302 34.823 34.4324 35.8907 34.7894 35.2799C34.9903 34.9356 35.2046 34.5995 35.4287 34.2718C35.8903 33.5947 36.4084 32.9656 36.9581 32.3565C37.1839 32.1065 36.4682 32.8465 36.8153 32.5038C36.8784 32.4425 36.9398 32.378 37.0029 32.3167C37.1457 32.1777 37.2902 32.0419 37.438 31.9079C37.7485 31.6248 38.0723 31.3549 38.406 31.0984C38.5472 30.9908 38.6917 30.8848 38.8361 30.7822C39.0354 30.6415 39.673 30.3584 38.9158 30.7127C39.2745 30.5455 39.6083 30.3303 39.9736 30.173C40.1579 30.0935 40.3422 30.019 40.5299 29.9512C40.6278 29.9164 40.7441 29.8535 40.8454 29.8419C40.8371 29.8419 40.1762 30.029 40.578 29.9247C40.9782 29.8204 41.3817 29.7327 41.7935 29.6846C42.0659 29.6532 42.6587 29.7111 41.7885 29.6582C41.9546 29.6681 42.1207 29.6598 42.285 29.6714C42.4893 29.6863 42.6869 29.7178 42.8878 29.7476C43.0887 29.7773 43.2415 29.9197 42.5557 29.6615C42.6653 29.7029 42.7815 29.726 42.8928 29.7658C43.0389 29.8187 43.1767 29.9015 43.3245 29.9495C42.7085 29.7492 42.8712 29.6697 43.0854 29.8237C43.1635 29.8816 43.2465 29.933 43.3245 29.9909C43.3528 30.0124 43.5105 30.1233 43.5089 30.1415C43.5072 30.1697 43.0223 29.6151 43.2847 29.9296C43.4159 30.0869 43.5338 30.2839 43.6766 30.4263C43.3029 30.0538 43.4325 30.0075 43.5603 30.2657C43.5985 30.3435 43.6351 30.4246 43.6683 30.5057C43.7712 30.7573 43.6815 30.8815 43.6184 30.2905C43.6267 30.3716 43.6633 30.466 43.6799 30.5438C43.7148 30.7143 43.7297 30.8865 43.7513 31.0603C43.8144 31.5453 43.7662 30.4792 43.7446 30.8219C43.7363 30.956 43.7347 31.0884 43.7214 31.2209C43.7031 31.4245 43.6683 31.6248 43.6317 31.8267C43.5985 32.0138 43.4773 32.2489 43.7048 31.5503C43.6766 31.6397 43.655 31.7307 43.6284 31.8201C43.4906 32.2737 43.3096 32.714 43.1004 33.1395C43.0588 33.2255 43.014 33.3116 42.9708 33.3944C42.7782 33.7751 43.0804 33.204 43.0904 33.1792C43.0157 33.3663 42.8629 33.5566 42.7533 33.7255C42.5059 34.1013 42.2352 34.4605 41.9546 34.8131C41.6756 35.164 41.4016 35.4835 41.1094 35.8047C41.0463 35.8742 40.9782 35.9454 40.9134 36.0166C40.6295 36.3294 41.0563 35.8725 41.0762 35.8494C40.9035 36.048 40.7009 36.2284 40.5099 36.4105C39.864 37.0263 39.1782 37.6008 38.4592 38.1322C38.1287 38.3772 37.7917 38.6106 37.4479 38.8374C37.2835 38.945 36.6226 39.324 37.3433 38.9118C37.1341 39.0327 36.9282 39.1602 36.7173 39.2777C35.9385 39.7147 35.1298 40.1054 34.3029 40.4431C33.9226 40.5987 33.5374 40.7444 33.1488 40.8785C32.9429 40.9496 32.7353 41.0142 32.5294 41.0821C32.1907 41.1897 33.1936 40.895 32.6905 41.0308C32.551 41.0688 32.4115 41.1086 32.2721 41.145C31.4302 41.3685 30.575 41.5373 29.7115 41.6532C29.2482 41.7144 28.7833 41.7591 28.3167 41.7906C28.1091 41.8038 27.8949 41.7972 27.689 41.822C28.5309 41.7211 27.6757 41.8154 27.4482 41.8138C26.4801 41.8038 25.512 41.726 24.5539 41.587C24.0873 41.5191 23.624 41.4363 23.1624 41.3387C23.0611 41.3171 22.9582 41.294 22.8552 41.2708C22.6377 41.2228 22.3653 41.0572 23.003 41.3089C22.7639 41.2145 22.4932 41.1731 22.2458 41.1019C21.3408 40.8371 20.4524 40.5143 19.5906 40.1352C19.1589 39.9481 18.7338 39.7445 18.3153 39.5277C18.2373 39.4879 18.126 39.4101 18.038 39.3803C18.6092 39.5641 18.3618 39.5608 18.1526 39.4399C17.9251 39.3108 17.6993 39.1767 17.4784 39.0393C16.6648 38.5344 15.8843 37.9699 15.1487 37.3574C14.8099 37.076 14.4994 36.7499 14.154 36.4784C14.1823 36.4999 14.619 36.9336 14.3184 36.6324C14.2487 36.5628 14.1789 36.495 14.1092 36.4254C13.9365 36.2516 13.7671 36.0761 13.5994 35.8957C12.9834 35.2335 12.4038 34.535 11.8658 33.8049C11.6168 33.4705 11.3776 33.1295 11.1468 32.7819C11.0123 32.5816 10.8928 32.3565 10.7466 32.1644C10.7682 32.1926 11.0821 32.7207 10.8645 32.3565C10.7898 32.229 10.7134 32.1032 10.637 31.9741C9.72707 30.4147 8.96655 28.7709 8.34385 27.0774C8.19772 26.6801 8.05824 26.2828 7.92706 25.8805C7.8706 25.7067 7.63314 24.836 7.85566 25.6769C7.79422 25.4369 7.71617 25.2002 7.64975 24.9618C7.40897 24.096 7.19975 23.2203 7.01875 22.338C6.58369 20.2009 6.3097 18.0339 6.14863 15.8604C6.06893 14.8009 6.01911 13.7415 5.98424 12.6787C5.96763 12.1987 5.97262 12.8012 5.98756 12.8459C5.94771 12.7267 5.97926 12.5297 5.9776 12.4039C5.97095 12.1374 5.96763 11.8709 5.96265 11.6044C5.95601 11.073 5.95435 10.5399 5.95435 10.0086C5.95601 7.87807 6.00915 5.74922 6.06394 3.62038C6.08885 2.26129 5.21874 0.842616 3.72924 0.753224C2.40746 0.673765 0.88974 1.61072 0.851547 3.07244Z" fill="url(#paint0_linear_880_3892)"/>
<defs>
<linearGradient id="paint0_linear_880_3892" x1="0.746094" y1="0.748535" x2="90.8346" y2="74.1213" gradientUnits="userSpaceOnUse">
<stop stop-color="#F6BDEE"/>
<stop offset="0.135" stop-color="#FEEEFF"/>
<stop offset="0.34" stop-color="#E4C4F5"/>
<stop offset="0.555" stop-color="#BED3FF"/>
<stop offset="0.786136" stop-color="#CCCEFF"/>
<stop offset="0.857963" stop-color="#F2FCFF"/>
<stop offset="0.917567" stop-color="#E5EDFF"/>
<stop offset="0.99" stop-color="#BED3FF"/>
<stop offset="1" stop-color="#BED3FF"/>
</linearGradient>
</defs>
</svg>
