<svg width="42" height="41" viewBox="0 0 42 41" fill="none" xmlns="http://www.w3.org/2000/svg">
<path d="M32.1209 40.4684C31.5307 40.4684 30.9605 40.2737 30.4701 39.9072L21.8508 33.4429C21.6591 33.3001 21.4314 33.2232 21.1927 33.2232C20.953 33.2232 20.7463 33.2931 20.5606 33.423L11.7495 39.6235C11.2732 39.9591 10.7249 40.1368 10.1647 40.1368C9.27187 40.1368 8.42502 39.6954 7.89674 38.9574C7.37944 38.2344 7.25061 37.3277 7.54421 36.4708L11.0275 26.2756C11.1823 25.8243 11.0295 25.3289 10.648 25.0433L2.02869 18.5781C1.06101 17.8531 0.68252 16.6417 1.065 15.4943C1.44748 14.3468 2.47509 13.6048 3.68245 13.6048H3.72839L14.5188 13.7676C14.9871 13.7676 15.4056 13.469 15.5563 13.0256L19.0396 2.82945C19.4281 1.69299 20.4547 0.958984 21.6531 0.958984C22.8525 0.958984 23.93 1.72395 24.2955 2.90834L27.4692 13.2044C27.61 13.6598 28.0244 13.9713 28.5018 13.9783L39.2752 14.1411C40.4945 14.1601 41.5141 14.925 41.8737 16.0895C42.2322 17.2549 41.8207 18.4612 40.8231 19.1643L32.012 25.3649C31.6216 25.6395 31.4548 26.1298 31.5956 26.5852L34.7693 36.8813C35.0319 37.7311 34.8841 38.6209 34.3668 39.3219C33.8376 40.039 32.9987 40.4674 32.1209 40.4674V40.4684Z" fill="black" fill-opacity="0.8"/>
</svg>
