<svg width="42" height="40" viewBox="0 0 42 40" fill="none" xmlns="http://www.w3.org/2000/svg">
<path d="M31.2029 39.5094C30.6127 39.5094 30.0425 39.3147 29.5522 38.9482L20.9328 32.4839C20.7411 32.3411 20.5134 32.2642 20.2747 32.2642C20.0351 32.2642 19.8283 32.3341 19.6426 32.464L10.8315 38.6646C10.3552 39.0001 9.80693 39.1779 9.24669 39.1779C8.3539 39.1779 7.50705 38.7365 6.97877 37.9985C6.46147 37.2754 6.33264 36.3687 6.62625 35.5118L10.1095 25.3167C10.2643 24.8653 10.1115 24.3699 9.73004 24.0843L1.11073 17.6191C0.143038 16.8941 -0.235448 15.6827 0.147033 14.5353C0.529514 13.3878 1.55712 12.6458 2.76448 12.6458H2.81042L13.6008 12.8086C14.0692 12.8086 14.4876 12.51 14.6384 12.0666L18.1217 1.87046C18.5101 0.734004 19.5367 0 20.7351 0C21.9345 0 23.012 0.764962 23.3775 1.94936L26.5512 12.2454C26.692 12.7008 27.1065 13.0124 27.5838 13.0193L38.3572 13.1821C39.5766 13.2011 40.5962 13.9661 40.9557 15.1305C41.3142 16.2959 40.9028 17.5023 39.9051 18.2053L31.0941 24.4059C30.7036 24.6805 30.5368 25.1709 30.6776 25.6262L33.8513 35.9223C34.114 36.7721 33.9662 37.6619 33.4489 38.363C32.9196 39.08 32.0807 39.5084 31.2029 39.5084V39.5094Z" fill="#F7D884"/>
</svg>
