<svg width="314" height="104" viewBox="0 0 314 104" fill="none" xmlns="http://www.w3.org/2000/svg">
<path d="M153.55 25.2405V28.362H150.428C149.32 28.362 148.414 29.2682 148.414 30.3758V34.5042H145.293V30.3758C145.293 29.2682 144.386 28.362 143.279 28.362H142.775V25.2405H143.279C144.386 25.2405 145.293 24.3342 145.293 23.2266V22.7231H148.414V23.2266C148.414 24.3342 149.32 25.2405 150.428 25.2405H153.55ZM157.074 29.3689V38.6327H149.925V32.4904H152.442C153.046 32.4904 153.449 31.9869 153.449 31.4834V29.4696H157.074V29.3689ZM154.556 35.5112C154.556 34.907 154.053 34.5042 153.55 34.5042C152.945 34.5042 152.543 35.0077 152.543 35.5112C152.543 36.1153 153.046 36.5181 153.55 36.5181C154.053 36.5181 154.556 36.0146 154.556 35.5112ZM159.692 27.2543H157.678C157.678 26.1467 156.772 25.2405 155.664 25.2405V23.2266H159.793V27.2543H159.692Z" fill="#EF8152"/>
<path d="M174.389 29.2683C174.389 29.8725 174.893 30.2753 175.396 30.2753H180.028V38.9349H172.375V36.4176H173.886C174.993 36.4176 175.899 35.5113 175.899 34.4037C175.899 33.2961 174.993 32.3898 173.886 32.3898H170.361V25.2406H174.49V29.2683H174.389ZM178.215 28.06L176.302 26.1469C177.108 25.3413 177.108 24.0323 176.302 23.2268L178.215 21.2129L181.639 24.6365L178.215 28.06Z" fill="#EF8152"/>
<path d="M205.207 24.6365V28.7649H204.2C203.092 28.7649 202.186 29.6712 202.186 30.7788V37.928H191.915V30.7788C191.915 29.6712 191.009 28.7649 189.901 28.7649H188.895V24.6365H194.533V31.7857C194.533 33.1954 195.641 34.4038 197.051 34.4038C198.46 34.4038 199.669 33.2961 199.669 31.7857V24.6365H205.207ZM201.683 23.6296C201.078 23.6296 200.676 23.1261 200.676 22.6227C200.676 22.1192 201.179 21.6157 201.683 21.6157C202.287 21.6157 202.689 22.1192 202.689 22.6227C202.689 23.1261 202.186 23.6296 201.683 23.6296ZM204.2 23.6296C203.696 23.6296 203.193 23.1261 203.193 22.6227C203.193 22.1192 203.696 21.6157 204.2 21.6157C204.804 21.6157 205.207 22.1192 205.207 22.6227C205.207 23.1261 204.804 23.6296 204.2 23.6296Z" fill="#EF8152"/>
<path d="M223.329 28.3625V38.6332H218.194V35.5117C219.302 35.5117 220.208 34.6055 220.208 33.4979C220.208 32.3902 219.302 31.484 218.194 31.484C217.087 31.484 216.18 32.3902 216.18 33.4979V38.6332H213.059V33.4979C213.059 32.3902 212.153 31.484 211.045 31.484V28.3625C212.153 28.3625 213.059 27.4563 213.059 26.3486H216.18C216.18 27.4563 217.087 28.3625 218.194 28.3625H223.329ZM228.465 29.3694H225.343C225.343 27.6577 223.934 26.248 222.222 26.248V23.1265H228.364V29.3694H228.465Z" fill="#EF8152"/>
<path d="M242.059 37.0216C240.951 37.0216 240.045 37.9279 240.045 39.0355H236.42V34.4036H237.427C238.534 34.4036 239.441 33.4974 239.441 32.3897C239.441 31.2821 238.534 30.3759 237.427 30.3759H236.42V27.2544H247.698V30.3759H246.691C245.583 30.3759 244.677 31.2821 244.677 32.3897C244.677 33.4974 245.583 34.4036 246.691 34.4036H248.704V39.0355H244.073C244.073 37.9279 243.166 37.0216 242.059 37.0216ZM245.583 26.2475H242.462C242.462 25.1398 241.555 24.2336 240.448 24.2336V22.2197H245.583V26.2475Z" fill="#EF8152"/>
<path d="M23.5536 23.4278C21.6405 23.4278 20.1301 25.0389 20.1301 26.8514V33.5978C20.1301 33.5978 20.1301 33.6985 20.0294 33.6985H8.14757C8.14757 33.6985 8.04688 33.6985 8.04688 33.5978V18.3932C8.04688 18.3932 8.04687 18.2925 8.14757 18.2925H64.9385C69.7718 18.2925 73.6988 22.2195 73.6988 27.0528V33.6985C73.6988 33.6985 73.6989 33.7992 73.5982 33.7992H61.6157C61.6157 33.7992 61.515 33.7992 61.515 33.6985V26.9521C61.515 25.0389 59.9039 23.4278 57.9907 23.4278H23.5536ZM52.956 42.4589V52.6289C52.956 54.542 54.5671 56.1531 56.4803 56.1531H68.3621C68.3621 56.1531 68.4628 56.1531 68.4628 56.2538V61.2885C68.4628 61.2885 68.4628 61.3892 68.3621 61.3892H56.3796C54.4664 61.3892 52.956 63.0003 52.956 64.8127V75.0835C52.956 75.0835 52.956 75.1841 52.8554 75.1841H28.9911C28.9911 75.1841 28.8904 75.1841 28.8904 75.0835V68.337C28.8904 68.337 28.8904 68.2363 28.9911 68.2363H35.7375C37.55 68.2363 39.1611 66.7259 39.1611 64.8127C39.1611 63.0003 37.55 61.3892 35.7375 61.3892L13.4843 61.4899C13.4843 61.4899 13.3836 61.4899 13.3836 61.3892V56.3545C13.3836 56.3545 13.3836 56.2538 13.4843 56.2538H35.7375C37.7514 56.2538 39.4632 54.4413 39.1611 52.2261C38.859 50.5143 37.2479 49.306 35.5361 49.306H28.9911C28.9911 49.306 28.8904 49.306 28.8904 49.2053V28.6639C28.8904 28.6639 28.8904 28.5632 28.9911 28.5632H52.8554C52.8554 28.5632 52.956 28.5632 52.956 28.6639V35.4103C52.956 35.4103 52.956 35.511 52.8554 35.511H42.6853C40.4701 35.511 38.859 37.5249 39.3625 39.7401C39.7652 41.3512 41.2756 42.4589 42.8867 42.4589H52.956Z" fill="#3655A1"/>
<path d="M135.524 61.9932V68.8403H83.9688V61.9932H94.2395V29.3686H102.798C103.705 29.3686 104.51 28.563 104.51 27.6568C104.51 26.7506 103.705 25.945 102.798 25.945H94.2395V19.0979H102.798C103.705 19.0979 104.51 18.2923 104.51 17.3861V15.6743H114.781V17.3861C114.781 18.2923 115.586 19.0979 116.493 19.0979H125.052V25.945H116.493C115.486 25.945 114.781 26.7506 114.781 27.6568C114.781 28.6637 115.586 29.3686 116.493 29.3686H125.052V62.0939H135.524V61.9932ZM99.3748 79.2117C97.4616 79.2117 95.9512 77.7013 95.9512 75.7882C95.9512 73.7743 97.7637 72.0625 99.979 72.3646C101.389 72.566 102.496 73.7743 102.798 75.184C103.1 77.3993 101.389 79.2117 99.3748 79.2117ZM109.646 39.6393C111.659 39.6393 113.371 37.8268 113.069 35.6116C112.868 34.2019 111.659 33.0942 110.25 32.7922C108.034 32.3894 106.222 34.1012 106.222 36.2157C106.222 38.1289 107.732 39.6393 109.646 39.6393ZM106.222 46.5871C106.222 48.5003 107.732 50.0107 109.646 50.0107C111.659 50.0107 113.371 48.1982 113.069 45.983C112.868 44.5733 111.659 43.4656 110.25 43.1636C108.034 42.7608 106.222 44.4726 106.222 46.5871ZM106.222 56.8578C106.222 58.771 107.732 60.2814 109.646 60.2814C111.659 60.2814 113.371 58.4689 113.069 56.2537C112.868 54.844 111.659 53.7364 110.25 53.4343C108.034 53.1322 106.222 54.844 106.222 56.8578ZM121.729 79.2117C119.816 79.2117 118.305 77.7013 118.305 75.7882C118.305 73.7743 120.118 72.0625 122.333 72.3646C123.743 72.566 124.85 73.7743 125.152 75.184C125.454 77.3993 123.743 79.2117 121.729 79.2117Z" fill="#3655A1"/>
<path d="M167.446 64.3094L153.349 76.1912L148.616 72.2642L157.276 64.9136C158.484 63.9067 158.786 61.9935 157.779 60.7852C156.37 59.0734 153.651 58.9727 151.939 60.2817L148.616 63.1011L143.984 59.1741L156.672 48.3999L167.446 57.4623C169.46 59.2748 169.46 62.4969 167.446 64.3094Z" fill="#3655A1"/>
<path d="M207.12 51.8238V59.0738C203.998 59.0738 201.481 61.1883 201.481 63.907V72.768C201.481 74.4798 200.071 75.8895 198.36 75.8895H191.915V72.6673C191.915 69.1431 188.592 66.223 184.363 66.223V61.3897C190.707 61.3897 195.742 57.0599 195.742 51.7231H198.561C198.561 51.7231 199.769 51.7231 201.38 51.7231H207.12V51.8238Z" fill="#3655A1"/>
<path d="M221.518 75.7883V66.1218H226.25C229.372 66.1218 231.889 63.9065 231.889 61.2885C231.889 58.5698 229.372 56.4552 226.25 56.4552H223.431V50.8164H237.83C240.347 50.8164 242.462 52.8303 242.462 55.4483V61.2885C242.462 63.9065 244.979 66.1218 248.101 66.1218H250.014V75.6876H241.455V74.8821C241.455 72.2641 238.938 70.0488 235.816 70.0488C232.695 70.0488 230.177 72.2641 230.177 74.8821V75.6876H221.518V75.7883ZM246.087 54.1393C245.08 54.1393 244.174 53.4344 244.174 52.5282C244.174 51.6219 244.979 50.9171 246.087 50.9171C247.094 50.9171 248 51.6219 248 52.5282C248 53.4344 247.194 54.1393 246.087 54.1393ZM246.087 58.167C245.08 58.167 244.174 57.4622 244.174 56.5559C244.174 55.6497 244.979 54.9448 246.087 54.9448C247.094 54.9448 248 55.6497 248 56.5559C248 57.4622 247.194 58.167 246.087 58.167Z" fill="#3655A1"/>
<path d="M291.064 62.6233C291.098 55.7275 287.97 50.1217 284.077 50.1023C280.184 50.0829 277.001 55.6573 276.967 62.5531C276.932 69.4489 280.06 75.0548 283.953 75.0742C287.846 75.0936 291.029 69.5191 291.064 62.6233Z" fill="#EF821A"/>
<path d="M283.938 67.4184C288.051 67.4389 291.178 70.1215 291.163 73.1975C291.148 76.2736 287.993 78.9248 283.881 78.9044C279.768 78.8839 276.641 76.2013 276.656 73.1253C276.671 70.0492 279.826 67.3979 283.938 67.4184Z" fill="#F5C922" stroke="#F0871A"/>
<path d="M283.977 61.3179C287.201 61.3339 290.101 61.684 292.179 62.2279C293.222 62.5008 294.029 62.8154 294.564 63.1432C295.129 63.4893 295.246 63.7575 295.245 63.8949C295.245 64.0323 295.124 64.2993 294.556 64.6397C294.019 64.9622 293.208 65.2687 292.162 65.5313C290.079 66.0544 287.175 66.3755 283.952 66.3595C280.728 66.3434 277.828 65.9934 275.75 65.4495C274.707 65.1765 273.899 64.8619 273.364 64.5342C272.8 64.188 272.682 63.9198 272.683 63.7825C272.684 63.6451 272.804 63.3781 273.372 63.0376C273.91 62.7152 274.721 62.4086 275.766 62.1461C277.849 61.6229 280.753 61.3018 283.977 61.3179Z" fill="#EAB42D" stroke="#F0871A"/>
<path d="M291.785 65.165C291.787 64.8313 290.751 64.5557 289.472 64.5493C288.193 64.5429 287.155 64.8083 287.153 65.1419C287.152 65.4756 288.187 65.7513 289.466 65.7576C290.745 65.764 291.784 65.4987 291.785 65.165Z" fill="white"/>
<path d="M283.984 67.0923C287.208 67.1084 290.108 67.4584 292.186 68.0023C293.229 68.2752 294.037 68.5898 294.572 68.9176C295.136 69.2637 295.254 69.5319 295.253 69.6693C295.252 69.8067 295.132 70.0737 294.564 70.4141C294.026 70.7366 293.216 71.0431 292.17 71.3057C290.087 71.8288 287.183 72.15 283.959 72.1339C280.735 72.1178 277.836 71.7678 275.757 71.2239C274.715 70.951 273.907 70.6363 273.372 70.3086C272.808 69.9625 272.69 69.6943 272.691 69.5569C272.692 69.4195 272.812 69.1525 273.38 68.812C273.917 68.4896 274.728 68.1831 275.774 67.9205C277.857 67.3973 280.761 67.0762 283.984 67.0923Z" fill="#EAA316" stroke="#F0871A"/>
<path d="M284.293 0.647973C300.407 0.728252 313.43 14.3037 313.347 31.0049C313.264 47.7061 300.106 61.1511 283.992 61.0708C267.879 60.9906 254.855 47.4151 254.938 30.7139C255.021 14.0128 268.18 0.567695 284.293 0.647973Z" fill="#F7DE8B" stroke="#F0871A"/>
<path d="M311.433 30.9954C311.511 15.2574 299.357 2.43839 284.287 2.36331C269.216 2.28823 256.935 14.9855 256.857 30.7235C256.778 46.4615 268.932 59.2806 284.003 59.3557C299.073 59.4308 311.354 46.7334 311.433 30.9954Z" fill="#F6F7C0"/>
<path d="M273.172 56.8574C273.273 56.3539 273.977 52.7289 277.904 50.3123C278.307 50.0102 282.234 47.795 285.96 48.8019C286.463 48.9026 289.081 49.6074 289.182 51.4199C289.383 53.5345 286.061 56.3539 283.845 56.0518C282.134 55.8504 281.127 54.038 281.429 52.4269C281.932 49.7081 286.262 47.2915 289.786 47.3922C293.512 47.4929 296.633 50.5137 296.13 54.8435" stroke="#F0871A" stroke-miterlimit="10"/>
<path d="M291.75 70.1841C291.752 69.8504 290.716 69.5747 289.437 69.5684C288.158 69.562 287.12 69.8273 287.118 70.161C287.117 70.4947 288.152 70.7703 289.431 70.7767C290.71 70.783 291.748 70.5177 291.75 70.1841Z" fill="white"/>
<path d="M306.385 44.4768C308.124 41.4996 309.144 38.8587 308.664 38.5782C308.184 38.2978 306.385 40.484 304.646 43.4613C302.908 46.4385 301.887 49.0794 302.368 49.3598C302.848 49.6403 304.647 47.4541 306.385 44.4768Z" fill="#F0871A"/>
<path d="M275.788 15.2714V16.5804H274.076C273.371 16.5804 272.767 17.1846 272.767 17.8894C272.767 18.5943 273.371 19.1984 274.076 19.1984V24.5352H272.062V21.9171C272.062 21.0109 271.357 20.2054 270.451 20.2054V18.1915C271.357 18.1915 272.163 17.4866 272.163 16.5804H270.451V15.2714C271.357 15.2714 272.163 14.5665 272.163 13.6603V12.6534H274.177V13.6603C274.177 14.4658 274.882 15.2714 275.788 15.2714ZM274.177 18.5943C273.774 18.5943 273.472 18.2922 273.472 17.8894C273.472 17.4866 273.774 17.1846 274.177 17.1846C274.58 17.1846 274.882 17.4866 274.882 17.8894C274.781 18.2922 274.479 18.5943 274.177 18.5943ZM278.809 18.5943V19.9033C278.809 20.306 279.111 20.6081 279.514 20.6081C279.916 20.6081 280.218 20.306 280.218 19.9033V18.5943H281.527V20.9102C281.527 21.6151 282.132 22.2192 282.836 22.2192V24.5352H280.52C280.52 24.5352 280.52 23.7296 280.52 23.2262C280.52 22.7227 280.118 22.2192 279.514 22.2192C278.909 22.2192 278.507 22.622 278.507 23.2262C278.507 23.8303 278.507 24.5352 278.507 24.5352H276.191V22.2192C276.896 22.2192 277.5 21.6151 277.5 20.9102V18.5943H278.809ZM282.434 15.5735H281.125C281.125 16.2783 281.729 16.8825 282.434 16.8825V18.0908H280.118V15.5735H278.809V18.0908H276.493V16.8825C277.198 16.8825 277.802 16.2783 277.802 15.5735H276.493V13.8617H282.434V15.5735ZM279.514 13.5596C279.111 13.5596 278.809 13.2575 278.809 12.8548C278.809 12.452 279.111 12.1499 279.514 12.1499C279.916 12.1499 280.218 12.452 280.218 12.8548C280.118 13.2575 279.816 13.5596 279.514 13.5596Z" fill="#F0871A"/>
<path d="M295.429 24.334H292.106V23.0249C292.811 23.0249 293.415 22.4208 293.415 21.7159V17.3861C293.415 16.6813 292.811 16.0771 292.106 16.0771C291.402 16.0771 290.797 16.6813 290.797 17.3861C290.797 18.091 291.402 18.6951 292.106 18.6951H292.811V21.0111H290.797V20.709C290.797 20.3062 290.495 20.0042 290.093 20.0042C289.69 20.0042 289.388 20.3062 289.388 20.709V21.0111H287.374V18.6951H288.079C288.784 18.6951 289.388 18.091 289.388 17.3861C289.388 16.6813 288.784 16.0771 288.079 16.0771C287.374 16.0771 286.77 16.6813 286.77 17.3861V24.334H284.756V14.6674H288.079C288.683 14.6674 289.086 14.2646 289.086 13.6605V13.3584H291.1V13.6605C291.1 14.2646 291.502 14.6674 292.106 14.6674H295.429V24.334Z" fill="#F0871A"/>
<path d="M267.634 35.7122H265.52V32.6914H267.634V35.7122ZM272.165 34.806V32.6914H274.28V40.4448H268.339V38.3302H268.641C270.554 38.4309 272.165 36.8198 272.165 34.806ZM270.655 35.7122H268.54V32.6914H270.655V35.7122Z" fill="#F0871A"/>
<path d="M281.534 35.712H283.346C284.051 35.712 284.555 35.2086 284.555 34.5037C284.555 33.8995 284.051 33.2954 283.346 33.2954H279.117V31.4829H287.475V36.9203H285.36C284.655 36.9203 284.152 37.4238 284.152 38.1287V40.8474H281.433L281.534 35.712Z" fill="#F0871A"/>
<path d="M300.662 37.1218H292.707V35.1079H300.662V37.1218Z" fill="#F0871A"/>
<path d="M0.998047 94.7183C58.7959 87.9718 99.7781 87.3677 127.569 88.2739C163.315 89.3815 180.131 93.2079 222.12 93.6107C255.248 94.0134 283.543 92.1003 302.675 90.2878" stroke="#FECA72" stroke-miterlimit="10"/>
<path d="M0.998047 103.176C58.7959 96.4299 99.7781 95.8257 127.569 96.7319C163.315 97.8395 180.131 101.666 222.12 102.069C255.248 102.471 283.543 100.558 302.675 98.7458" stroke="#FECA72" stroke-miterlimit="10"/>
</svg>
