<svg width="56" height="59" viewBox="0 0 56 59" fill="none" xmlns="http://www.w3.org/2000/svg">
<path d="M56.0005 29.5786C56.0005 32.272 39.1502 31.4922 38.2064 33.8343C37.2296 36.2625 49.6412 47.9766 47.864 49.8053C46.0867 51.6353 34.7102 38.8553 32.352 39.8624C30.0775 40.8329 30.8348 58.1833 28.219 58.1833C25.6032 58.1833 26.3606 40.8329 24.086 39.8624C21.7278 38.8553 10.3513 51.6366 8.57533 49.8053C6.79807 47.9766 19.2097 36.2625 18.2316 33.8343C17.2536 31.406 0.4375 32.272 0.4375 29.5786C0.4375 26.8852 17.2878 27.6637 18.2316 25.3217C19.2097 22.8935 6.7968 11.1807 8.57533 9.35068C10.3513 7.52199 21.7278 20.3006 24.086 19.2936C26.3606 18.323 25.6032 0.972656 28.219 0.972656C30.8348 0.972656 30.0775 18.323 32.352 19.2936C34.6278 20.2654 46.0867 7.52068 47.864 9.35068C49.64 11.1807 37.2296 22.8935 38.2064 25.3217C39.1502 27.6637 56.0005 26.8852 56.0005 29.5786Z" fill="black"/>
</svg>
