<svg width="77" height="80" viewBox="0 0 77 80" fill="none" xmlns="http://www.w3.org/2000/svg">
<g filter="url(#filter0_d_880_3914)">
<path d="M67.0005 38.5786C67.0005 41.272 50.1502 40.4922 49.2064 42.8343C48.2296 45.2625 60.6412 56.9766 58.864 58.8053C57.0867 60.6353 45.7102 47.8553 43.352 48.8624C41.0775 49.8329 41.8348 67.1833 39.219 67.1833C36.6032 67.1833 37.3606 49.8329 35.086 48.8624C32.7278 47.8553 21.3513 60.6366 19.5753 58.8053C17.7981 56.9766 30.2097 45.2625 29.2316 42.8343C28.2536 40.406 11.4375 41.272 11.4375 38.5786C11.4375 35.8852 28.2878 36.6637 29.2316 34.3217C30.2097 31.8935 17.7968 20.1807 19.5753 18.3507C21.3513 16.522 32.7278 29.3006 35.086 28.2936C37.3606 27.323 36.6032 9.97266 39.219 9.97266C41.8348 9.97266 41.0775 27.323 43.352 28.2936C45.6278 29.2654 57.0867 16.5207 58.864 18.3507C60.64 20.1807 48.2296 31.8935 49.2064 34.3217C50.1502 36.6637 67.0005 35.8852 67.0005 38.5786Z" fill="black"/>
<path d="M65.563 36.606C65.563 39.2994 48.7127 38.5196 47.7689 40.8616C46.7921 43.2899 59.2037 55.0039 57.4265 56.8326C55.6492 58.6626 44.2727 45.8827 41.9145 46.8898C39.64 47.8603 40.3973 65.2107 37.7815 65.2107C35.1657 65.2107 35.9231 47.8603 33.6485 46.8898C31.2903 45.8827 19.9138 58.6639 18.1378 56.8326C16.3606 55.0039 28.7722 43.2899 27.7941 40.8616C26.8161 38.4334 10 39.2994 10 36.606C10 33.9126 26.8503 34.6911 27.7941 32.3491C28.7722 29.9208 16.3593 18.208 18.1378 16.378C19.9138 14.5493 31.2903 27.328 33.6485 26.3209C35.9231 25.3504 35.1657 8 37.7815 8C40.3973 8 39.64 25.3504 41.9145 26.3209C44.1903 27.2927 55.6492 14.548 57.4265 16.378C59.2025 18.208 46.7921 29.9208 47.7689 32.3491C48.7127 34.6911 65.563 33.9126 65.563 36.606Z" fill="#E2FFA4"/>
</g>
<defs>
<filter id="filter0_d_880_3914" x="0" y="0" width="77" height="79.1836" filterUnits="userSpaceOnUse" color-interpolation-filters="sRGB">
<feFlood flood-opacity="0" result="BackgroundImageFix"/>
<feColorMatrix in="SourceAlpha" type="matrix" values="0 0 0 0 0 0 0 0 0 0 0 0 0 0 0 0 0 0 127 0" result="hardAlpha"/>
<feOffset dy="2"/>
<feGaussianBlur stdDeviation="5"/>
<feComposite in2="hardAlpha" operator="out"/>
<feColorMatrix type="matrix" values="0 0 0 0 1 0 0 0 0 0.520034 0 0 0 0 0.313851 0 0 0 1 0"/>
<feBlend mode="normal" in2="BackgroundImageFix" result="effect1_dropShadow_880_3914"/>
<feBlend mode="normal" in="SourceGraphic" in2="effect1_dropShadow_880_3914" result="shape"/>
</filter>
</defs>
</svg>
