<svg width="56" height="58" viewBox="0 0 56 58" fill="none" xmlns="http://www.w3.org/2000/svg">
<path d="M55.563 28.606C55.563 31.2994 38.7127 30.5196 37.7689 32.8616C36.7921 35.2899 49.2037 47.0039 47.4265 48.8326C45.6492 50.6626 34.2727 37.8827 31.9145 38.8898C29.64 39.8603 30.3973 57.2107 27.7815 57.2107C25.1657 57.2107 25.9231 39.8603 23.6485 38.8898C21.2903 37.8827 9.91381 50.6639 8.13783 48.8326C6.36057 47.0039 18.7722 35.2899 17.7941 32.8616C16.8161 30.4334 0 31.2994 0 28.606C0 25.9126 16.8503 26.6911 17.7941 24.3491C18.7722 21.9208 6.3593 10.208 8.13783 8.37803C9.91381 6.54933 21.2903 19.328 23.6485 18.3209C25.9231 17.3504 25.1657 0 27.7815 0C30.3973 0 29.64 17.3504 31.9145 18.3209C34.1903 19.2927 45.6492 6.54803 47.4265 8.37803C49.2025 10.208 36.7921 21.9208 37.7689 24.3491C38.7127 26.6911 55.563 25.9126 55.563 28.606Z" fill="#FFADBE"/>
</svg>
