<svg width="57" height="60" viewBox="0 0 57 60" fill="none" xmlns="http://www.w3.org/2000/svg">
<path d="M57.0005 30.5786C57.0005 33.272 40.1502 32.4922 39.2064 34.8343C38.2296 37.2625 50.6412 48.9766 48.864 50.8053C47.0867 52.6353 35.7102 39.8553 33.352 40.8624C31.0775 41.8329 31.8348 59.1833 29.219 59.1833C26.6032 59.1833 27.3606 41.8329 25.086 40.8624C22.7278 39.8553 11.3513 52.6366 9.57533 50.8053C7.79807 48.9766 20.2097 37.2625 19.2316 34.8343C18.2536 32.406 1.4375 33.272 1.4375 30.5786C1.4375 27.8852 18.2878 28.6637 19.2316 26.3217C20.2097 23.8935 7.7968 12.1807 9.57533 10.3507C11.3513 8.52199 22.7278 21.3006 25.086 20.2936C27.3606 19.323 26.6032 1.97266 29.219 1.97266C31.8348 1.97266 31.0775 19.323 33.352 20.2936C35.6278 21.2654 47.0867 8.52068 48.864 10.3507C50.64 12.1807 38.2296 23.8935 39.2064 26.3217C40.1502 28.6637 57.0005 27.8852 57.0005 30.5786Z" fill="black"/>
<path d="M55.563 28.606C55.563 31.2994 38.7127 30.5196 37.7689 32.8616C36.7921 35.2899 49.2037 47.0039 47.4265 48.8326C45.6492 50.6626 34.2727 37.8827 31.9145 38.8898C29.64 39.8603 30.3973 57.2107 27.7815 57.2107C25.1657 57.2107 25.9231 39.8603 23.6485 38.8898C21.2903 37.8827 9.91381 50.6639 8.13783 48.8326C6.36057 47.0039 18.7722 35.2899 17.7941 32.8616C16.8161 30.4334 0 31.2994 0 28.606C0 25.9126 16.8503 26.6911 17.7941 24.3491C18.7722 21.9208 6.3593 10.208 8.13783 8.37803C9.91381 6.54933 21.2903 19.328 23.6485 18.3209C25.9231 17.3504 25.1657 0 27.7815 0C30.3973 0 29.64 17.3504 31.9145 18.3209C34.1903 19.2927 45.6492 6.54803 47.4265 8.37803C49.2025 10.208 36.7921 21.9208 37.7689 24.3491C38.7127 26.6911 55.563 25.9126 55.563 28.606Z" fill="#FFADBE"/>
</svg>
