<svg width="100" height="80" viewBox="0 0 100 80" fill="none" xmlns="http://www.w3.org/2000/svg">
<path d="M72.5888 79.9948C69.1615 79.9948 65.9061 79.4478 62.9139 78.3679C58.3705 76.7271 54.4977 73.719 52.0093 69.8974C51.3662 68.9098 50.8038 67.8856 50.3309 66.8406C49.9715 66.8597 49.6087 66.8702 49.251 66.8702C48.993 66.8702 48.7316 66.8649 48.472 66.8545C39.8254 66.5253 31.6363 60.4324 29.0017 52.366C28.9174 52.1117 28.8383 51.8539 28.7644 51.5962C27.172 51.5857 25.5812 51.4202 24.0335 51.1032C19.0293 50.0773 14.5839 47.8251 11.1789 44.5906C7.88399 41.4605 5.30446 37.632 3.50911 33.2113C-0.379089 23.6365 -0.117697 13.1316 0.11446 3.8651C0.176369 1.4788 2.37068 0 4.36896 0C4.45494 0 4.53749 0.00348341 4.62175 0.00696728C7.04134 0.156763 8.43429 2.41764 8.38098 4.51654C8.32595 6.69555 8.2692 8.94772 8.26748 11.2034C8.26748 11.7764 8.27092 12.3356 8.2778 12.8633C8.28124 13.1385 8.28639 13.4155 8.29155 13.6907C8.29155 13.7273 8.29155 13.7673 8.29155 13.8074C8.29327 13.8475 8.29671 13.8962 8.29671 13.9624C8.33799 15.1782 8.3913 16.2529 8.46524 17.2492C8.64237 19.6547 8.92956 21.825 9.34228 23.8838C9.52457 24.7896 9.73609 25.6831 9.97168 26.5453C9.9992 26.6463 10.0284 26.7456 10.0594 26.8484L10.0628 26.8588C10.0903 26.932 10.1161 27.0104 10.1385 27.0923C10.1729 27.2177 10.2193 27.3831 10.2417 27.4493C10.3724 27.8534 10.5117 28.261 10.6561 28.6564C11.2924 30.4139 12.0577 32.0704 12.9244 33.5788C12.9571 33.6345 12.9863 33.6868 13.019 33.7425C13.1204 33.8888 13.2047 34.0299 13.2821 34.1553C13.3216 34.2215 13.3612 34.2912 13.4042 34.3556C13.6312 34.7005 13.8685 35.0437 14.1092 35.3746C14.6423 36.1062 15.2116 36.8029 15.8014 37.4474C15.9648 37.625 16.1316 37.801 16.2984 37.9717L16.3311 38.003C16.5254 38.1667 16.7008 38.3322 16.8711 38.4925C17.0103 38.6248 17.1445 38.7502 17.2717 38.8582C17.9837 39.4592 18.7403 40.0131 19.5262 40.5077C19.669 40.5983 19.8152 40.6889 19.963 40.7777C20.0559 40.8091 20.135 40.8404 20.2038 40.8718C20.3775 40.9484 20.5237 41.0407 20.644 41.1452C20.9364 41.2916 21.2322 41.4326 21.5314 41.565C22.3637 41.9378 23.2304 42.2565 24.1058 42.5161C24.1281 42.523 24.1505 42.53 24.1745 42.5352C24.3843 42.5474 24.5752 42.6066 24.8796 42.7233C24.9037 42.7286 24.9278 42.7355 24.9518 42.739C25.399 42.8348 25.8512 42.9184 26.3035 42.9846C26.8745 43.07 27.4488 43.1309 28.0232 43.1675C28.1642 41.7758 28.4325 40.3771 28.8246 38.9941C30.018 34.7841 32.4961 30.9678 35.803 28.254C37.7618 26.6446 39.9131 25.6013 42.1934 25.1519C42.883 25.0177 43.5863 24.9481 44.2828 24.9481C46.4599 24.9481 48.4427 25.6256 49.8683 26.8571C52.2226 28.8915 53.275 32.0808 52.6164 35.1847C52.1091 37.571 50.9586 39.8528 49.1959 41.9656C46.018 45.7767 41.7566 48.6821 37.0687 50.255C37.1582 50.4709 37.2527 50.6869 37.3525 50.8977C37.5193 51.2513 37.7067 51.6049 37.9079 51.9532C37.9956 52.0926 38.0902 52.2319 38.1831 52.3678C38.6182 53.0018 39.11 53.6132 39.6448 54.188C39.693 54.2402 39.7411 54.2942 39.791 54.35C39.8168 54.3778 39.8426 54.4075 39.8701 54.4353L40.0902 54.6391C40.3688 54.8934 40.6594 55.1425 40.9604 55.3811C41.5399 55.8427 42.1556 56.2712 42.7918 56.6544C42.8348 56.6788 42.895 56.7136 42.981 56.7624L42.9982 56.7711C43.1495 56.8495 43.2991 56.9296 43.4522 57.0045C43.7738 57.163 44.1022 57.3111 44.4341 57.4487L44.6972 57.5584C45.1805 57.7605 45.7153 57.9851 46.1813 58.0966L46.1865 58.0722C46.269 58.0931 46.3499 58.1106 46.4324 58.1297C46.5132 58.1471 46.5958 58.1646 46.6783 58.182C46.84 58.2151 47.0051 58.2464 47.1702 58.2743C47.5382 58.337 47.9148 58.3875 48.2845 58.4241C48.3808 58.4345 48.4771 58.4432 48.5734 58.4502C48.5941 57.7744 48.6594 57.1055 48.7609 56.4489C49.545 51.4934 52.6026 47.1441 57.1478 44.5157C58.8881 43.5106 60.5751 43.0003 62.1675 43.0003C63.232 43.0003 64.2414 43.2337 65.1632 43.6918C68.2277 45.2141 69.9886 48.5201 69.4452 51.732C69.1787 53.2997 68.4598 54.5991 67.8253 55.7452C67.318 56.6596 66.747 57.5305 66.1228 58.3335C64.7212 60.1398 63.1374 61.6778 61.4143 62.9006C60.4822 63.5607 59.5123 64.146 58.5132 64.6493C58.5218 64.6668 58.5596 64.7312 58.5596 64.7312C58.7746 65.0674 59.005 65.4018 59.2475 65.7241C59.5725 66.156 60.0437 66.7622 60.5768 67.2952C60.6318 67.3405 60.68 67.3857 60.7264 67.4275C60.8072 67.5042 60.8915 67.5773 60.9741 67.6522C61.1082 67.7707 61.244 67.8874 61.3816 68.0006C61.6894 68.2549 62.011 68.5005 62.3343 68.7287C62.6335 68.9377 62.95 69.145 63.2801 69.3418C63.4022 69.3975 63.5106 69.462 63.6138 69.5264L63.6172 69.5299C63.7892 69.6205 63.9663 69.7076 64.1417 69.7912C64.993 70.2005 65.9009 70.5506 66.8382 70.8363C66.8829 70.8485 66.9706 70.8676 67.0497 70.8868C67.2492 70.9303 67.4882 70.9843 67.7358 71.0801C68.1933 71.1794 68.6645 71.2665 69.1339 71.3379C70.0609 71.4808 71.0256 71.5679 72.0007 71.6009C72.2775 71.6079 72.563 71.6149 72.845 71.6149C72.845 71.6149 72.9654 71.6149 73.005 71.6149C73.2646 71.5713 73.3884 71.5644 73.4933 71.5644C73.526 71.5644 73.5604 71.5644 73.5931 71.5661C73.7135 71.5609 73.8304 71.5591 73.9456 71.5557C74.1193 71.5522 74.2844 71.5487 74.4254 71.5365C75.4074 71.4546 76.4065 71.317 77.3987 71.1289C78.3308 70.953 79.3076 70.7213 80.3033 70.4409C80.3549 70.427 80.4065 70.4113 80.4563 70.3974C80.7349 70.258 81.0273 70.1883 81.2749 70.1309C81.3231 70.1204 81.3678 70.11 81.4022 70.0995C81.839 69.9532 82.2878 69.7964 82.7366 69.6292C86.8278 68.1138 90.7435 65.9801 94.035 64.0937C94.5732 63.7837 95.1648 63.6269 95.789 63.6269C97.3213 63.6269 98.8913 64.6372 99.6119 66.0811C100.088 67.0356 100.13 68.3403 99.7168 69.4028C99.2422 70.6273 98.3273 71.263 97.679 71.6358C95.3454 72.9752 93.5173 73.9611 91.7581 74.8355C86.7435 77.3263 82.2225 78.8748 77.9318 79.5663C76.1451 79.8537 74.348 80 72.5922 80L72.5888 79.9948ZM58.9139 53.6532C58.7746 53.817 58.637 53.9894 58.5063 54.1601C58.3171 54.4127 58.1349 54.6757 57.9646 54.9439C58.1383 54.7854 58.3085 54.6234 58.4736 54.4597C58.5149 54.4179 58.5562 54.3761 58.5957 54.336L58.6301 54.2995C58.7195 54.2002 58.8107 54.0992 58.8984 53.9981C59.2251 53.6202 59.5381 53.2265 59.8305 52.8207C59.7565 52.8851 59.6826 52.953 59.6086 53.0192C59.4539 53.1603 59.2956 53.3014 59.1357 53.4407C59.0979 53.4738 59.0463 53.5191 58.9775 53.5783C58.9551 53.6027 58.9328 53.6271 58.9122 53.6532H58.9139ZM37.92 38.5517C37.8357 38.7137 37.7532 38.8791 37.6775 39.0394C37.3456 39.7309 37.0567 40.4555 36.8194 41.1888C36.8005 41.2498 36.7798 41.3107 36.7626 41.3717C37.1754 41.1696 37.5829 40.9554 37.9819 40.7272C38.0593 40.6837 38.1349 40.6384 38.2123 40.5913C38.2536 40.5617 38.2983 40.5339 38.343 40.5077C38.4084 40.4694 38.6027 40.351 38.6543 40.3179C38.9879 40.0949 39.3181 39.8615 39.6345 39.6229C40.331 39.1003 40.9982 38.529 41.6207 37.9264L41.7566 37.7975C41.8151 37.7382 41.877 37.6808 41.9354 37.6233C41.9354 37.6233 42.1401 37.3986 42.171 37.3638C42.4513 37.0502 42.7265 36.7228 42.9879 36.3901C43.2923 36.0017 43.5313 35.6742 43.7342 35.3572C43.7703 35.3014 43.8099 35.2457 43.8494 35.1865C43.8632 35.1656 43.8787 35.1447 43.8942 35.122L43.9286 35.0541C43.9561 35.0018 43.9819 34.9496 44.0077 34.8973C44.1659 34.5681 44.3 34.2424 44.4049 33.9271C44.4187 33.8749 44.4359 33.8035 44.4651 33.7077C44.4823 33.6032 44.4995 33.49 44.5081 33.3854C44.5081 33.3767 44.5098 33.3698 44.5098 33.3611H44.4066C44.3877 33.3593 44.3258 33.3576 44.2054 33.3523H44.1745C44.1504 33.3523 44.1229 33.3523 44.1005 33.3541C43.8374 33.3854 43.5451 33.4429 43.1908 33.5318C43.1685 33.5387 43.1478 33.5474 43.1272 33.5544C42.9604 33.6171 42.7936 33.685 42.6336 33.7547C42.4857 33.8192 42.3241 33.908 42.1538 34.002C42.0851 34.0526 42.0111 34.0961 41.9286 34.1362C41.8168 34.1919 41.7308 34.2407 41.6981 34.2598C41.5777 34.3452 41.4522 34.441 41.3112 34.5507C40.9999 34.7928 40.6938 35.0524 40.398 35.3241C40.2587 35.453 40.1212 35.5854 39.9888 35.716C39.9681 35.7369 39.9492 35.7561 39.9286 35.777C39.3731 36.4092 38.9174 36.991 38.5391 37.5554C38.3275 37.8706 38.1212 38.1998 37.9303 38.5308L37.9183 38.5534L37.92 38.5517Z" fill="#1A1A1A"/>
<path d="M0.878522 3.22388C0.63825 12.8703 0.464911 22.8085 4.15824 31.8957C5.82641 35.9981 8.27032 39.6994 11.4677 42.7336C14.828 45.9242 19.1066 47.9442 23.598 48.8647C32.3851 50.6658 41.5892 47.1157 47.3266 40.2395C48.8248 38.4454 49.9421 36.4132 50.4329 34.1102C50.977 31.5518 50.1292 28.9136 48.1624 27.2167C46.4255 25.716 43.8855 25.4103 41.7093 25.8376C39.5829 26.2562 37.6367 27.2583 35.96 28.6339C32.8759 31.1645 30.5659 34.7598 29.4726 38.6173C28.3004 42.7475 28.2987 47.0045 29.6339 51.0931C32.1225 58.7039 39.9176 64.2462 47.7573 64.5449C52.1045 64.7117 56.2389 63.3812 59.7915 60.8628C61.4511 59.687 62.934 58.2141 64.1851 56.6023C64.772 55.8485 65.2972 55.0461 65.7623 54.209C66.3904 53.0748 66.9963 51.9702 67.2159 50.6727C67.6742 47.9685 66.0832 45.3771 63.7268 44.2065C61.5318 43.1175 59.0776 43.8278 57.0713 44.9846C53.0708 47.2963 50.1446 51.2025 49.4083 55.852C48.7184 60.2167 50.0725 64.6057 52.4358 68.2322C54.8282 71.9057 58.5267 74.6395 62.6027 76.1106C67.1507 77.7519 72.1312 77.9985 76.8783 77.2326C81.5447 76.4805 86.0447 74.7437 90.2701 72.6473C92.2489 71.6642 94.1848 70.5944 96.1035 69.4967C96.7317 69.1371 97.2379 68.7029 97.5108 68.0012C97.7562 67.369 97.7665 66.4937 97.4593 65.8753C96.8484 64.6526 95.1991 63.7512 93.8827 64.505C90.1808 66.6257 86.3982 68.6439 82.3943 70.1254C81.9343 70.2956 81.4709 70.4606 81.0058 70.6152C80.8136 70.6777 80.3279 70.7472 80.1803 70.8792C80.2129 70.8497 80.8136 70.6934 80.3537 70.8254C80.1872 70.8722 80.0207 70.9226 79.8543 70.9695C78.8588 71.2509 77.8514 71.4923 76.8337 71.6851C75.8057 71.8796 74.7674 72.0238 73.7239 72.1124C73.2536 72.1506 72.7456 72.1176 72.2823 72.1992C72.9636 72.0794 72.6409 72.1888 72.4127 72.194C72.2994 72.194 72.1861 72.1957 72.0729 72.1957C71.7622 72.1957 71.4499 72.1922 71.1392 72.1818C70.125 72.1506 69.1124 72.0585 68.1101 71.9057C67.6107 71.8292 67.1147 71.7372 66.6204 71.6295C66.5106 71.6052 66.4007 71.5791 66.2926 71.5548C65.8327 71.4489 66.4694 71.5878 66.5089 71.6087C66.2549 71.4801 65.8893 71.4402 65.6199 71.3586C64.6296 71.0581 63.6616 70.6864 62.7263 70.24C62.5238 70.1428 62.323 70.0438 62.1256 69.9396C62.0758 69.9135 61.8991 69.7902 61.8287 69.7815L62.1479 69.9604C62.0741 69.9187 62.0003 69.877 61.9282 69.8336C61.5146 69.5922 61.1113 69.3351 60.7183 69.059C60.363 68.8089 60.0164 68.5449 59.68 68.267C59.5307 68.1437 59.3831 68.0169 59.2372 67.8883C59.1462 67.8085 59.057 67.7268 58.9677 67.6435C58.6468 67.3499 58.966 67.6556 59.0965 67.7772C58.4374 67.1762 57.8505 66.4624 57.3167 65.7486C57.0524 65.3994 56.8036 65.0399 56.5667 64.67C56.2424 64.1628 56.8877 65.2292 56.5152 64.5814C56.3934 64.3712 56.2767 64.1593 56.1651 63.944C55.7653 63.1745 55.4237 62.3721 55.1508 61.5471C55.1234 61.4638 54.9792 60.9913 55.1234 61.4742C55.2675 61.957 55.1285 61.4846 55.1079 61.3995C55.0565 61.2137 55.0118 61.0278 54.9689 60.8402C54.8677 60.3973 54.787 59.9492 54.7287 59.4994C54.6755 59.0947 54.6703 58.6883 54.624 58.2853C54.7321 59.2302 54.6308 58.4034 54.6377 58.1568C54.6428 57.9171 54.6549 57.6774 54.6737 57.4378C54.7063 57.0035 54.7613 56.5711 54.8402 56.1421C54.8831 55.9059 55.0805 55.2806 54.8265 56.1421C54.8951 55.9093 54.9535 55.6731 55.029 55.4404C55.1646 55.0235 55.3225 54.6154 55.5044 54.2176C55.5936 54.0179 55.6949 53.8234 55.7927 53.6271C55.9437 53.3214 55.4907 54.1551 55.664 53.8616C55.7378 53.7365 55.8099 53.6097 55.8871 53.4847C56.1034 53.1304 56.3368 52.7882 56.5873 52.4582C56.7349 52.2654 56.8877 52.0744 57.0456 51.8885C57.1091 51.8138 57.1726 51.7409 57.2378 51.668C57.3837 51.503 57.7492 51.2615 57.1571 51.7478C57.835 51.1903 58.422 50.5668 59.1582 50.0701C59.2338 50.018 59.3247 49.9693 59.3985 49.912C58.8442 50.3549 59.0484 50.1274 59.2389 50.0162C59.4311 49.9033 59.613 49.8026 59.8053 49.7036C60.2051 49.4969 60.6188 49.3128 61.0427 49.1547C61.3379 49.0453 61.3722 49.186 60.8384 49.2051C60.9174 49.2016 61.0289 49.1582 61.1045 49.1443C61.192 49.1287 61.2795 49.1183 61.367 49.1061C61.8064 49.0418 61.0135 49.1374 61.0307 49.1113C61.0495 49.0818 61.6451 49.153 61.6554 49.1843C61.6708 49.2346 60.9122 48.9342 61.307 49.1096C61.4185 49.1582 61.5335 49.2016 61.6468 49.2485C61.8665 49.3371 61.8356 49.4917 61.3533 49.0801C61.4117 49.1287 61.4923 49.1686 61.5558 49.2138C61.621 49.259 61.6828 49.3163 61.748 49.3632C62.1205 49.6358 61.367 48.9116 61.5558 49.1704C61.6554 49.3058 61.7806 49.4761 61.8991 49.5976C61.494 49.1843 61.621 49.0922 61.7257 49.3145C61.7789 49.4257 61.8356 49.5316 61.8802 49.6463C61.9111 49.721 61.9317 49.8043 61.966 49.8773C61.6536 49.193 61.8441 49.3736 61.8682 49.6202C61.8785 49.7227 61.8973 49.8269 61.9111 49.9294C61.9488 50.1916 61.7738 50.1413 61.9025 49.5785C61.8682 49.7262 61.8441 49.9433 61.8493 50.0978C61.8304 49.556 62.0106 49.5195 61.9025 49.8443C61.8579 49.9797 61.803 50.11 61.7463 50.2385C61.5833 50.6102 61.3979 50.9732 61.2126 51.3345C60.9723 51.8 61.494 50.8412 61.3104 51.1538C61.2606 51.2372 61.216 51.3188 61.1662 51.4022C61.0341 51.6297 60.8951 51.8521 60.7526 52.0744C60.2841 52.7969 59.7641 53.4882 59.2012 54.1377C59.0604 54.2993 58.9145 54.4591 58.7704 54.6171C58.5456 54.8637 59.1891 54.1881 58.9523 54.4226C58.8682 54.5077 58.7841 54.5945 58.7 54.6779C58.3945 54.9801 58.0787 55.2702 57.7527 55.5515C57.4266 55.8329 57.0936 56.1004 56.7469 56.3574C56.5753 56.4842 56.4003 56.6093 56.2252 56.7326C56.0484 56.8542 55.2418 57.3179 56.0381 56.8715C55.2881 57.2919 54.557 57.7139 53.7658 58.0526C53.3745 58.2211 52.9764 58.3722 52.5731 58.5094C52.4821 58.5406 52.3929 58.5667 52.3019 58.598C53.021 58.3409 52.7378 58.4694 52.5662 58.5163C52.3379 58.5806 52.1097 58.6449 51.8797 58.6987C51.0388 58.9019 50.1806 59.0374 49.3174 59.0964C49.0891 59.1121 48.3374 59.1121 49.2916 59.1103C49.0857 59.1103 48.8832 59.1138 48.6772 59.1103C48.2447 59.1034 47.814 59.0773 47.3832 59.0356C46.9764 58.9974 46.5697 58.9419 46.1681 58.8724C45.9879 58.8411 45.8094 58.8064 45.6309 58.7699C45.5417 58.7525 45.4524 58.7334 45.3632 58.7126C45.2739 58.6935 45.1864 58.6726 45.0972 58.6518L45.5365 58.7595C44.7333 58.6535 43.8804 58.2662 43.1355 57.9588C42.7751 57.8112 42.4216 57.6514 42.0715 57.4794C41.8655 57.3787 41.663 57.2728 41.4605 57.1651C41.3026 57.0834 41.0297 56.9063 41.7128 57.3092C41.5944 57.238 41.4742 57.1703 41.3558 57.1008C40.647 56.6788 39.9674 56.2081 39.3221 55.694C38.9994 55.4369 38.6853 55.1677 38.3799 54.8898C38.3129 54.829 38.246 54.7665 38.1791 54.704C37.865 54.4156 38.3713 54.8915 38.3816 54.902C38.1911 54.7474 38.0212 54.539 37.8547 54.3601C37.278 53.74 36.7443 53.0783 36.262 52.3801C36.1591 52.229 36.0578 52.0778 35.9583 51.9215C35.5635 51.3067 36.2208 52.3801 35.9274 51.8712C35.7077 51.4925 35.5052 51.1052 35.3181 50.711C35.1413 50.3375 34.9783 49.9537 34.829 49.5646C34.762 49.391 34.7003 49.2173 34.6385 49.0401C34.6024 48.9307 34.5664 48.8195 34.5303 48.7084C34.4377 48.4339 34.7329 49.424 34.575 48.8543C34.345 48.031 34.1785 47.1886 34.0773 46.3376C34.0309 45.9468 33.9966 45.5543 33.9777 45.1617C33.9726 45.0471 33.9588 44.929 33.964 44.8144C33.964 44.823 33.9743 45.5734 33.976 45.1322C33.976 44.9012 33.976 44.6685 33.9829 44.4357C34.0086 43.602 34.091 42.7684 34.2283 41.9434C34.2987 41.5283 34.3931 41.1236 34.4771 40.7137C34.2832 41.6533 34.4342 40.9082 34.496 40.6841C34.5664 40.4375 34.6385 40.1926 34.7174 39.9495C34.9766 39.154 35.2855 38.3776 35.6476 37.6238C35.7369 37.4362 35.8295 37.2504 35.9274 37.0646C36.2037 36.5366 35.5858 37.6568 35.9548 37.0159C36.1625 36.6547 36.3839 36.3021 36.6156 35.9582C37.0927 35.2478 37.6281 34.5878 38.1962 33.9487C38.4296 33.6864 37.6899 34.4628 38.0486 34.1032C38.1138 34.039 38.1773 33.9712 38.2426 33.907C38.3901 33.7611 38.5395 33.6187 38.6922 33.478C39.0131 33.181 39.3478 32.8979 39.6928 32.6287C39.8386 32.5158 39.988 32.4046 40.1373 32.2969C40.3432 32.1493 41.0023 31.8523 40.2197 32.224C40.5904 32.0486 40.9353 31.8228 41.3129 31.6578C41.5034 31.5744 41.6939 31.4962 41.8878 31.425C41.9891 31.3886 42.1092 31.3226 42.2139 31.3104C42.2053 31.3104 41.5223 31.5067 41.9376 31.3972C42.3512 31.2878 42.7683 31.1958 43.1939 31.1454C43.4753 31.1124 44.088 31.1732 43.1887 31.1176C43.3604 31.128 43.532 31.1193 43.7019 31.1315C43.913 31.1471 44.1172 31.1801 44.3249 31.2114C44.5325 31.2427 44.6904 31.392 43.9816 31.1211C44.0949 31.1645 44.215 31.1888 44.33 31.2305C44.481 31.2861 44.6235 31.3729 44.7762 31.4233C44.1395 31.2131 44.3077 31.1298 44.5291 31.2913C44.6098 31.3521 44.6956 31.4059 44.7762 31.4667C44.8054 31.4893 44.9685 31.6057 44.9667 31.6248C44.965 31.6543 44.4639 31.0724 44.7351 31.4025C44.8706 31.5675 44.9925 31.7741 45.1401 31.9235C44.7539 31.5327 44.8878 31.4841 45.0199 31.755C45.0594 31.8367 45.0972 31.9218 45.1315 32.0069C45.2379 32.2709 45.1452 32.4011 45.08 31.7811C45.0886 31.8662 45.1264 31.9652 45.1435 32.0468C45.1796 32.2257 45.195 32.4063 45.2173 32.5887C45.2825 33.0976 45.2328 31.9791 45.2104 32.3386C45.2019 32.4793 45.2001 32.6182 45.1864 32.7572C45.1675 32.9708 45.1315 33.181 45.0937 33.3929C45.0594 33.5891 44.9341 33.8358 45.1693 33.1028C45.1401 33.1966 45.1178 33.2921 45.0903 33.3859C44.9479 33.8618 44.7608 34.3238 44.5445 34.7702C44.5016 34.8605 44.4553 34.9508 44.4107 35.0377C44.2116 35.4371 44.524 34.8379 44.5343 34.8119C44.457 35.0081 44.2991 35.2079 44.1859 35.385C43.9301 35.7793 43.6504 36.1562 43.3604 36.5261C43.072 36.8944 42.7888 37.2296 42.4868 37.5665C42.4216 37.6395 42.3512 37.7141 42.2843 37.7888C41.9908 38.1171 42.4319 37.6377 42.4525 37.6134C42.274 37.8218 42.0646 38.0111 41.8672 38.2022C41.1996 38.8483 40.4908 39.451 39.7477 40.0085C39.4062 40.2656 39.0578 40.5105 38.7025 40.7484C38.5326 40.8613 37.8495 41.259 38.5944 40.8266C38.3781 40.9534 38.1653 41.0871 37.9474 41.2104C37.1425 41.6689 36.3066 42.0788 35.452 42.4332C35.0589 42.5964 34.6608 42.7493 34.2592 42.8899C34.0464 42.9646 33.8318 43.0324 33.619 43.1036C33.2689 43.2165 34.3055 42.9073 33.7855 43.0497C33.6413 43.0897 33.4972 43.1314 33.353 43.1696C32.4829 43.404 31.599 43.5812 30.7066 43.7028C30.2278 43.767 29.7472 43.8139 29.265 43.8469C29.0504 43.8608 28.829 43.8539 28.6162 43.8799C29.4864 43.774 28.6025 43.873 28.3674 43.8713C27.3668 43.8608 26.3662 43.7792 25.376 43.6333C24.8937 43.5621 24.4149 43.4753 23.9378 43.3728C23.8331 43.3502 23.7267 43.3259 23.6203 43.3016C23.3955 43.2512 23.114 43.0775 23.773 43.3415C23.5259 43.2425 23.2461 43.1991 22.9904 43.1244C22.0551 42.8465 21.1369 42.5078 20.2462 42.1101C19.8 41.9138 19.3606 41.7002 18.9281 41.4727C18.8474 41.431 18.7325 41.3494 18.6415 41.3181C19.2319 41.5109 18.9762 41.5074 18.7599 41.3806C18.5248 41.2451 18.2914 41.1045 18.0631 40.9603C17.2222 40.4306 16.4155 39.8383 15.6553 39.1957C15.3051 38.9004 14.9842 38.5583 14.6272 38.2734C14.6564 38.296 15.1078 38.751 14.7971 38.4349C14.7251 38.362 14.653 38.2908 14.5809 38.2178C14.4024 38.0355 14.2274 37.8514 14.054 37.662C13.4173 36.9673 12.8183 36.2344 12.2623 35.4684C12.0048 35.1176 11.7577 34.7598 11.5191 34.395C11.3801 34.1849 11.2566 33.9487 11.1055 33.7472C11.1278 33.7767 11.4522 34.3308 11.2274 33.9487C11.1502 33.8149 11.0712 33.6829 10.9923 33.5475C10.0518 31.9113 9.26574 30.1867 8.62215 28.4099C8.47112 27.993 8.32696 27.5762 8.19138 27.1541C8.13302 26.9718 7.8876 26.0582 8.11758 26.9405C8.05408 26.6887 7.97342 26.4403 7.90477 26.1902C7.65591 25.2818 7.43967 24.363 7.2526 23.4373C6.80295 21.195 6.51977 18.9215 6.35329 16.641C6.27092 15.5294 6.21943 14.4178 6.18339 13.3028C6.16623 12.7991 6.17137 13.4313 6.18682 13.4782C6.14563 13.3532 6.17824 13.1465 6.17652 13.0145C6.16966 12.7348 6.16623 12.4552 6.16108 12.1756C6.15421 11.6181 6.1525 11.0588 6.1525 10.5013C6.15421 8.26594 6.20913 6.03236 6.26577 3.79878C6.29151 2.37283 5.39221 0.884354 3.85275 0.790564C2.48663 0.707195 0.917996 1.69025 0.878522 3.22388Z" fill="url(#paint0_linear_1599_600)"/>
<defs>
<linearGradient id="paint0_linear_1599_600" x1="0.769531" y1="0.785645" x2="94.993" y2="76.3811" gradientUnits="userSpaceOnUse">
<stop stop-color="#F6BDEE"/>
<stop offset="0.135" stop-color="#FEEEFF"/>
<stop offset="0.34" stop-color="#E4C4F5"/>
<stop offset="0.555" stop-color="#BED3FF"/>
<stop offset="0.786136" stop-color="#CCCEFF"/>
<stop offset="0.857963" stop-color="#F2FCFF"/>
<stop offset="0.917567" stop-color="#E5EDFF"/>
<stop offset="0.99" stop-color="#BED3FF"/>
<stop offset="1" stop-color="#BED3FF"/>
</linearGradient>
</defs>
</svg>
