<svg width="97" height="77" viewBox="0 0 97 77" fill="none" xmlns="http://www.w3.org/2000/svg">
<path d="M70.2329 76.2436C66.9168 76.2436 63.7671 75.7224 60.8719 74.6931C56.476 73.1292 52.729 70.2621 50.3213 66.6198C49.6991 65.6785 49.155 64.7023 48.6974 63.7062C48.3497 63.7245 47.9986 63.7345 47.6525 63.7345C47.4029 63.7345 47.15 63.7295 46.8988 63.7195C38.5328 63.4058 30.6095 57.5986 28.0604 49.9105C27.9789 49.6681 27.9024 49.4224 27.8308 49.1767C26.2901 49.1667 24.751 49.009 23.2535 48.7069C18.4116 47.729 14.1105 45.5825 10.8161 42.4996C7.62811 39.5163 5.1323 35.8673 3.39522 31.6539C-0.366786 22.5281 -0.113877 12.5158 0.110745 3.68385C0.170644 1.40946 2.29374 0 4.22716 0C4.31035 0 4.39022 0.00332007 4.47175 0.00664056C6.81281 0.149412 8.16055 2.30428 8.10897 4.30475C8.05572 6.38158 8.00082 8.52814 7.99915 10.678C7.99915 11.2242 8.00248 11.7571 8.00914 12.2601C8.01246 12.5224 8.01745 12.7864 8.02245 13.0487C8.02245 13.0836 8.02245 13.1218 8.02245 13.1599C8.02411 13.1981 8.02744 13.2446 8.02744 13.3077C8.06737 14.4665 8.11895 15.4908 8.1905 16.4404C8.36188 18.733 8.63974 20.8016 9.03907 22.7639C9.21544 23.6271 9.4201 24.4788 9.64805 25.3005C9.67467 25.3968 9.70295 25.4915 9.7329 25.5894L9.73623 25.5994C9.76285 25.6691 9.78781 25.7438 9.80944 25.8218C9.84272 25.9414 9.88764 26.0991 9.90927 26.1622C10.0357 26.5473 10.1705 26.9358 10.3103 27.3126C10.9259 28.9877 11.6663 30.5665 12.5049 32.0042C12.5365 32.0573 12.5648 32.1071 12.5964 32.1603C12.6946 32.2997 12.7761 32.4342 12.851 32.5537C12.8893 32.6168 12.9275 32.6832 12.9691 32.7446C13.1888 33.0733 13.4184 33.4004 13.6513 33.7158C14.1671 34.4131 14.7179 35.0771 15.2886 35.6914C15.4466 35.8607 15.608 36.0284 15.7694 36.1911L15.801 36.221C15.9891 36.377 16.1588 36.5347 16.3235 36.6875C16.4583 36.8136 16.588 36.9332 16.7112 37.0361C17.4 37.6088 18.1321 38.1368 18.8925 38.6082C19.0306 38.6946 19.172 38.7809 19.3151 38.8656C19.405 38.8954 19.4815 38.9253 19.5481 38.9552C19.7161 39.0283 19.8576 39.1162 19.974 39.2159C20.2569 39.3553 20.5431 39.4898 20.8326 39.6159C21.6379 39.9712 22.4765 40.275 23.3234 40.5224C23.345 40.529 23.3667 40.5357 23.3899 40.5406C23.5929 40.5523 23.7776 40.6087 24.0721 40.7199C24.0954 40.7249 24.1187 40.7316 24.142 40.7349C24.5746 40.8262 25.0122 40.9059 25.4498 40.969C26.0022 41.0503 26.558 41.1084 27.1137 41.1433C27.2501 39.8168 27.5097 38.4837 27.8891 37.1656C29.0438 33.153 31.4414 29.5156 34.641 26.9291C36.5362 25.3952 38.6177 24.4008 40.824 23.9724C41.4912 23.8446 42.1717 23.7782 42.8456 23.7782C44.952 23.7782 46.8705 24.424 48.2498 25.5977C50.5277 27.5368 51.546 30.5765 50.9087 33.5348C50.4179 35.8092 49.3047 37.984 47.5993 39.9978C44.5244 43.6302 40.4014 46.3993 35.8656 47.8984C35.9522 48.1042 36.0437 48.3101 36.1402 48.511C36.3016 48.848 36.4829 49.185 36.6776 49.517C36.7625 49.6498 36.854 49.7826 36.9438 49.9121C37.3648 50.5164 37.8407 51.0991 38.3581 51.647C38.4047 51.6968 38.4513 51.7483 38.4995 51.8014C38.5245 51.8279 38.5495 51.8562 38.5761 51.8827L38.7891 52.077C39.0586 52.3193 39.3398 52.5567 39.631 52.7842C40.1917 53.2241 40.7874 53.6325 41.403 53.9977C41.4446 54.021 41.5028 54.0542 41.586 54.1007L41.6027 54.109C41.7491 54.1837 41.8938 54.26 42.0419 54.3314C42.3531 54.4825 42.6709 54.6236 42.992 54.7548L43.2466 54.8594C43.7141 55.0519 44.2316 55.2661 44.6825 55.3723L44.6875 55.3491C44.7673 55.369 44.8456 55.3856 44.9254 55.4039C45.0036 55.4205 45.0835 55.4371 45.1633 55.4537C45.3198 55.4852 45.4795 55.5151 45.6392 55.5417C45.9953 55.6014 46.3597 55.6496 46.7174 55.6844C46.8106 55.6944 46.9038 55.7027 46.9969 55.7094C47.0169 55.0652 47.0801 54.4277 47.1783 53.8018C47.937 49.0787 50.8954 44.9334 55.293 42.4282C56.9768 41.4703 58.6091 40.9839 60.1498 40.9839C61.1798 40.9839 62.1565 41.2064 63.0483 41.643C66.0133 43.0939 67.7171 46.2449 67.1913 49.3062C66.9334 50.8003 66.2379 52.0388 65.624 53.1311C65.1331 54.0027 64.5807 54.8328 63.9767 55.5981C62.6207 57.3197 61.0882 58.7856 59.421 59.951C58.5192 60.5802 57.5808 61.138 56.6141 61.6178C56.6224 61.6344 56.659 61.6958 56.659 61.6958C56.867 62.0162 57.09 62.335 57.3246 62.6421C57.639 63.0538 58.0949 63.6315 58.6107 64.1395C58.664 64.1827 58.7106 64.2259 58.7555 64.2657C58.8337 64.3388 58.9152 64.4085 58.9951 64.4799C59.1249 64.5928 59.2563 64.704 59.3894 64.8119C59.6873 65.0543 59.9984 65.2884 60.3112 65.5058C60.6007 65.7051 60.9069 65.9026 61.2263 66.0902C61.3445 66.1433 61.4493 66.2048 61.5491 66.2662L61.5525 66.2695C61.7189 66.3558 61.8902 66.4388 62.0599 66.5185C62.8836 66.9087 63.7621 67.2423 64.6689 67.5146C64.7122 67.5262 64.797 67.5445 64.8736 67.5628C65.0666 67.6043 65.2978 67.6557 65.5374 67.747C65.98 67.8417 66.4359 67.9247 66.8902 67.9927C67.787 68.1289 68.7204 68.2119 69.6638 68.2434C69.9317 68.2501 70.2079 68.2567 70.4808 68.2567C70.4808 68.2567 70.5973 68.2567 70.6355 68.2567C70.8868 68.2152 71.0066 68.2085 71.1081 68.2085C71.1397 68.2085 71.173 68.2085 71.2046 68.2102C71.321 68.2052 71.4342 68.2036 71.5457 68.2002C71.7137 68.1969 71.8735 68.1936 72.0099 68.182C72.96 68.104 73.9267 67.9728 74.8867 67.7935C75.7885 67.6258 76.7336 67.405 77.697 67.1378C77.7469 67.1245 77.7968 67.1095 77.8451 67.0963C78.1146 66.9634 78.3975 66.897 78.6371 66.8423C78.6837 66.8323 78.7269 66.8223 78.7602 66.8124C79.1828 66.6729 79.6171 66.5235 80.0514 66.3641C84.0097 64.9198 87.7983 62.8861 90.983 61.0882C91.5038 60.7927 92.0762 60.6433 92.6801 60.6433C94.1627 60.6433 95.6818 61.6062 96.3789 62.9824C96.8398 63.8922 96.8798 65.1356 96.4804 66.1483C96.0212 67.3154 95.136 67.9213 94.5087 68.2766C92.2509 69.5533 90.4822 70.4929 88.78 71.3263C83.9282 73.7003 79.5539 75.1762 75.4025 75.8352C73.6738 76.1092 71.935 76.2486 70.2362 76.2486L70.2329 76.2436ZM57.0018 51.1373C56.867 51.2934 56.7339 51.4577 56.6074 51.6204C56.4244 51.8611 56.2481 52.1118 56.0833 52.3675C56.2514 52.2164 56.4161 52.062 56.5758 51.906C56.6158 51.8661 56.6557 51.8263 56.694 51.7881L56.7272 51.7532C56.8138 51.6586 56.902 51.5623 56.9868 51.466C57.3029 51.1058 57.6058 50.7306 57.8886 50.3438C57.8171 50.4052 57.7455 50.4699 57.674 50.533C57.5242 50.6675 57.3712 50.802 57.2164 50.9348C57.1798 50.9663 57.1299 51.0095 57.0633 51.0659C57.0417 51.0892 57.0201 51.1124 57.0001 51.1373H57.0018ZM36.6893 36.7439C36.6077 36.8983 36.5279 37.056 36.4547 37.2087C36.1335 37.8678 35.854 38.5584 35.6244 39.2574C35.6061 39.3155 35.5861 39.3736 35.5695 39.4317C35.9688 39.2391 36.3631 39.0349 36.7492 38.8174C36.824 38.7759 36.8972 38.7327 36.9721 38.6879C37.0121 38.6597 37.0553 38.6331 37.0986 38.6082C37.1618 38.5717 37.3498 38.4588 37.3997 38.4273C37.7225 38.2148 38.042 37.9923 38.3481 37.7649C39.022 37.2668 39.6676 36.7223 40.2699 36.1479L40.4014 36.0251C40.4579 35.9686 40.5178 35.9138 40.5744 35.859C40.5744 35.859 40.7724 35.6449 40.8023 35.6117C41.0736 35.3129 41.3398 35.0008 41.5927 34.6837C41.8872 34.3135 42.1185 34.0013 42.3148 33.6992C42.3497 33.6461 42.388 33.593 42.4263 33.5365C42.4396 33.5166 42.4546 33.4967 42.4695 33.4751L42.5028 33.4103C42.5294 33.3605 42.5544 33.3107 42.5794 33.2609C42.7324 32.9472 42.8622 32.6367 42.9637 32.3362C42.977 32.2864 42.9937 32.2184 43.0219 32.127C43.0386 32.0274 43.0552 31.9195 43.0635 31.8199C43.0635 31.8116 43.0652 31.805 43.0652 31.7967H42.9654C42.9471 31.795 42.8872 31.7934 42.7707 31.7884H42.7408C42.7175 31.7884 42.6908 31.7884 42.6692 31.79C42.4146 31.8199 42.1318 31.8747 41.789 31.9594C41.7674 31.966 41.7474 31.9743 41.7275 31.981C41.5661 32.0407 41.4047 32.1055 41.2499 32.1719C41.1068 32.2333 40.9504 32.318 40.7857 32.4076C40.7192 32.4558 40.6476 32.4973 40.5677 32.5354C40.4596 32.5886 40.3764 32.6351 40.3448 32.6533C40.2283 32.7347 40.1068 32.826 39.9704 32.9306C39.6693 33.1613 39.3731 33.4087 39.0869 33.6677C38.9521 33.7905 38.819 33.9167 38.6909 34.0412C38.6709 34.0611 38.6526 34.0794 38.6327 34.0993C38.0952 34.7019 37.6543 35.2564 37.2883 35.7943C37.0836 36.0948 36.8839 36.4086 36.6992 36.724L36.6876 36.7456L36.6893 36.7439Z" fill="url(#paint0_linear_880_3891)"/>
<defs>
<linearGradient id="paint0_linear_880_3891" x1="0" y1="38.1243" x2="96.7544" y2="38.1243" gradientUnits="userSpaceOnUse">
<stop stop-color="#3655A1"/>
<stop offset="0.816053" stop-color="#B16FA0"/>
</linearGradient>
</defs>
</svg>
