<svg width="77" height="78" viewBox="0 0 77 78" fill="none" xmlns="http://www.w3.org/2000/svg">
<path d="M63.7633 52.1538C62.6028 54.5844 47.7328 46.6206 45.872 48.3274C43.9443 50.0979 50.0976 66.0165 47.7059 66.901C45.3136 67.7867 40.5536 51.3522 37.9915 51.2449C35.5208 51.1407 28.7287 67.1244 26.3682 65.9973C24.0076 64.8703 32.1666 49.5393 30.5322 47.6835C28.838 45.7586 13.0647 52.391 12.251 49.9732C11.4351 47.5572 27.6827 42.3338 27.8463 39.7211C28.0099 37.1084 12.4617 30.6446 13.6221 28.214C14.7826 25.7834 29.6532 33.7461 31.514 32.0392C33.4429 30.2693 27.2878 14.3513 29.6813 13.4662C32.0719 12.5811 36.8324 29.0145 39.3945 29.1217C41.8652 29.2259 48.6573 13.2423 51.0178 14.3693C53.3784 15.4963 45.2194 30.8274 46.8538 32.6832C48.4888 34.5407 64.3207 27.9768 65.1361 30.394C65.9503 32.8106 49.7044 38.0334 49.5397 40.6455C49.3823 43.1657 64.9238 49.7232 63.7633 52.1538Z" fill="black"/>
<path d="M63.316 49.7544C62.1556 52.185 47.2855 44.2212 45.4247 45.928C43.497 47.6984 49.6504 63.6171 47.2586 64.5016C44.8663 65.3873 40.1063 48.9528 37.5443 48.8455C35.0735 48.7413 28.2814 64.725 25.9209 63.5979C23.5604 62.4709 31.7193 47.1399 30.0849 45.2841C28.3907 43.3592 12.6174 49.9916 11.8038 47.5738C10.9879 45.1578 27.2355 39.9344 27.3991 37.3217C27.5627 34.709 12.0144 28.2452 13.1749 25.8146C14.3353 23.384 29.206 31.3467 31.0668 29.6398C32.9956 27.8699 26.8405 11.9519 29.234 11.0667C31.6246 10.1817 36.3851 26.615 38.9472 26.7223C41.4179 26.8265 48.2101 10.8429 50.5706 11.9699C52.9311 13.0969 44.7721 28.4279 46.4065 30.2838C48.0416 32.1413 63.8735 25.5774 64.6888 27.9946C65.503 30.4112 49.2572 35.634 49.0924 38.2461C48.935 40.7663 64.4765 47.3238 63.316 49.7544Z" fill="#FFADBE"/>
</svg>
